<?xml version="1.0" encoding="utf-8"?>
<!-- Generator: Adobe Illustrator 21.0.2, SVG Export Plug-In . SVG Version: 6.00 Build 0)  -->
<svg version="1.1" id="Layer_1" xmlns="http://www.w3.org/2000/svg" xmlns:xlink="http://www.w3.org/1999/xlink" x="0px" y="0px"
	 viewBox="0 0 935.6 596.3" style="enable-background:new 0 0 935.6 596.3;" xml:space="preserve">
<style type="text/css">
	.st0{fill:#FFFFFF;}
	.st1{fill:#2D2D2D;}
	.st2{opacity:0.12;}
	.st3{fill:#020202;}
	.st4{fill:#F3E642;}
	.st5{opacity:5.000000e-02;enable-background:new    ;}
	.st6{fill:#5BA249;}
	.st7{fill:#65BC55;}
	.st8{fill:#E4C028;}
	.st9{fill:#90B6E0;}
	.st10{fill:#FFFFFF;stroke:#FFFFFF;stroke-width:1.3737;stroke-miterlimit:10;}
</style>
<g>
	<g>
		<g>
			<path class="st0" d="M828.2,582.1H104c-52.4,0-94.9-42.5-94.9-94.9v-382c0-52.4,42.5-94.9,94.9-94.9h724.2
				c52.4,0,94.9,42.5,94.9,94.9v382C923.1,539.6,880.6,582.1,828.2,582.1z"/>
		</g>
	</g>
	<g>
		<g>
			<path class="st1" d="M828.2,582.5H104c-52.6,0-95.4-42.8-95.4-95.4v-382C8.6,52.6,51.4,9.8,104,9.8h724.2
				c52.6,0,95.4,42.8,95.4,95.4v382C923.6,539.8,880.8,582.5,828.2,582.5z M104,10.8c-52.1,0-94.4,42.3-94.4,94.4v382
				c0,52.1,42.3,94.4,94.4,94.4h724.2c52.1,0,94.4-42.3,94.4-94.4v-382c0-52.1-42.3-94.4-94.4-94.4L104,10.8L104,10.8z"/>
		</g>
	</g>
</g>
<g>
	<g>
		<g>
			<path d="M187.6,170.3c1,7,2.9,12.3,5.9,15.7c5.3,6.3,14.4,9.5,27.4,9.5c7.7,0,14-0.8,18.8-2.5c9.2-3.2,13.7-9.1,13.7-17.8
				c0-5.1-2.2-9-6.7-11.8c-4.5-2.7-11.6-5.1-21.3-7.2l-16.6-3.6c-16.4-3.6-27.6-7.5-33.7-11.8c-10.4-7.1-15.5-18.2-15.5-33.3
				c0-13.8,5.1-25.2,15.2-34.3c10.1-9.1,25-13.7,44.6-13.7c16.4,0,30.4,4.3,41.9,12.9c11.6,8.6,17.6,21,18.2,37.4h-30.9
				c-0.6-9.2-4.7-15.8-12.4-19.7c-5.1-2.6-11.5-3.9-19.1-3.9c-8.5,0-15.2,1.7-20.3,5s-7.6,8-7.6,14c0,5.5,2.5,9.6,7.5,12.3
				c3.2,1.8,10,3.9,20.4,6.4l27,6.4c11.8,2.8,20.7,6.5,26.6,11.2c9.2,7.2,13.7,17.7,13.7,31.4c0,14-5.4,25.7-16.3,35
				s-26.2,13.9-46,13.9c-20.2,0-36.1-4.6-47.7-13.7c-11.6-9.1-17.4-21.7-17.4-37.7L187.6,170.3L187.6,170.3z"/>
		</g>
	</g>
	<g>
		<g>
			<path d="M372.5,144.9c-0.6-4.2-2-8.1-4.3-11.5c-3.3-4.6-8.5-6.9-15.6-6.9c-10,0-16.9,5-20.6,14.9c-2,5.3-2.9,12.3-2.9,21
				c0,8.3,1,15,2.9,20.1c3.6,9.5,10.2,14.2,20.1,14.2c7,0,11.9-1.9,14.8-5.6s4.7-8.6,5.3-14.6h30.3c-0.7,9-4,17.6-9.8,25.6
				c-9.3,13-23.1,19.5-41.4,19.5s-31.8-5.4-40.4-16.3c-8.6-10.8-12.9-24.9-12.9-42.2c0-19.5,4.8-34.7,14.3-45.5s22.7-16.3,39.4-16.3
				c14.3,0,25.9,3.2,35,9.6s14.5,17.7,16.1,33.9h-30.3V144.9z"/>
		</g>
	</g>
	<g>
		<g>
			<path d="M518,203.9c-9.6,11.8-24.2,17.8-43.7,17.8s-34.1-5.9-43.7-17.8c-9.6-11.8-14.4-26.1-14.4-42.8c0-16.4,4.8-30.6,14.4-42.6
				s24.1-18,43.7-18c19.5,0,34.1,6,43.7,18c9.6,12,14.4,26.2,14.4,42.6C532.4,177.8,527.6,192,518,203.9z M494.2,187.4
				c4.7-6.2,7-15,7-26.3c0-11.4-2.3-20.1-7-26.3c-4.7-6.1-11.3-9.2-20-9.2s-15.4,3.1-20.1,9.2c-4.7,6.1-7,14.9-7,26.3
				c0,11.4,2.3,20.2,7,26.3c4.7,6.2,11.4,9.3,20.1,9.3C482.9,196.7,489.6,193.6,494.2,187.4z"/>
		</g>
	</g>
	<g>
		<g>
			<path d="M648.4,203.9c-9.6,11.8-24.2,17.8-43.7,17.8s-34.1-5.9-43.7-17.8c-9.6-11.8-14.4-26.1-14.4-42.8
				c0-16.4,4.8-30.6,14.4-42.6c9.6-12,24.1-18,43.7-18c19.5,0,34.1,6,43.7,18s14.4,26.2,14.4,42.6C662.8,177.8,658,192,648.4,203.9z
				 M624.6,187.4c4.7-6.2,7-15,7-26.3c0-11.4-2.3-20.1-7-26.3c-4.7-6.1-11.3-9.2-20-9.2s-15.4,3.1-20.1,9.2c-4.7,6.1-7,14.9-7,26.3
				c0,11.4,2.3,20.2,7,26.3c4.7,6.2,11.4,9.3,20.1,9.3S620,193.6,624.6,187.4z"/>
		</g>
	</g>
	<g>
		<g>
			<path d="M779.6,116.3c9.3,9.8,13.9,24.2,13.9,43.2c0,20-4.5,35.3-13.6,45.8s-20.7,15.7-35,15.7c-9.1,0-16.6-2.3-22.7-6.8
				c-3.3-2.5-6.5-6.2-9.7-10.9v59.2h-29.4V104.1h28.5v16.8c3.2-4.9,6.6-8.8,10.3-11.7c6.6-5.1,14.5-7.6,23.7-7.6
				C759,101.6,770.3,106.5,779.6,116.3z M756.8,137.7c-4-6.7-10.6-10.1-19.6-10.1c-10.9,0-18.4,5.1-22.4,15.3
				c-2.1,5.4-3.2,12.3-3.2,20.6c0,13.2,3.5,22.5,10.6,27.8c4.2,3.1,9.2,4.7,15,4.7c8.4,0,14.7-3.2,19.1-9.6
				c4.4-6.4,6.6-14.9,6.6-25.5C762.9,152.2,760.8,144.4,756.8,137.7z"/>
		</g>
	</g>
</g>
<g>
	<g>
		<g>
			<path d="M150.5,532.7l9-22.9h2.4l8.8,22.9h-2.2l-2.6-7.2h-10.4l-2.7,7.2H150.5z M156.2,523.6h9l-4.5-12L156.2,523.6z"/>
		</g>
	</g>
	<g>
		<g>
			<path d="M183.5,527.5c0.3,1.4,0.8,2.4,1.6,3s1.9,0.9,3.3,0.9c0.7,0,1.3-0.1,1.8-0.3s0.9-0.4,1.3-0.7c0.3-0.3,0.6-0.6,0.7-1
				c0.2-0.4,0.3-0.7,0.3-1.1c0-0.8-0.3-1.4-0.8-1.8c-0.5-0.4-1.2-0.7-2-0.9s-1.6-0.4-2.5-0.6c-0.9-0.2-1.8-0.4-2.5-0.7
				c-0.8-0.3-1.4-0.8-2-1.4c-0.5-0.6-0.8-1.4-0.8-2.5c0-1.4,0.5-2.5,1.5-3.4s2.4-1.3,4.3-1.3c1.8,0,3.2,0.4,4.3,1.2s1.8,2.1,2,4
				h-1.9c-0.2-1.3-0.7-2.2-1.4-2.7c-0.8-0.5-1.8-0.8-3-0.8s-2.1,0.3-2.8,0.8c-0.6,0.5-1,1.2-1,2c0,0.7,0.3,1.3,0.8,1.7s1.2,0.7,2,1
				c0.8,0.2,1.6,0.5,2.5,0.7s1.8,0.5,2.5,0.8c0.8,0.3,1.4,0.8,2,1.4c0.5,0.6,0.8,1.4,0.8,2.5c0,0.8-0.2,1.5-0.5,2.1
				s-0.8,1.1-1.4,1.5s-1.3,0.7-2.1,0.9s-1.7,0.3-2.7,0.3s-1.8-0.1-2.6-0.4c-0.8-0.3-1.4-0.7-1.9-1.2s-0.9-1.1-1.2-1.8
				s-0.5-1.4-0.5-2.2H183.5z"/>
		</g>
	</g>
	<g>
		<g>
			<path d="M199.5,524.9c0,0.9,0.1,1.7,0.3,2.5s0.6,1.5,1,2.1c0.5,0.6,1,1,1.7,1.4c0.7,0.3,1.5,0.5,2.4,0.5c1.2,0,2.3-0.3,3.2-1
				s1.5-1.6,1.8-2.8h2.1c-0.2,0.8-0.5,1.5-0.9,2.2s-0.9,1.2-1.4,1.7c-0.6,0.5-1.3,0.9-2,1.2c-0.8,0.3-1.7,0.4-2.7,0.4
				c-1.3,0-2.4-0.2-3.4-0.7c-1-0.4-1.7-1.1-2.4-1.8c-0.6-0.8-1.1-1.7-1.4-2.7c-0.3-1-0.4-2.2-0.4-3.4s0.2-2.3,0.5-3.4s0.8-2,1.5-2.8
				c0.6-0.8,1.4-1.4,2.4-1.9c0.9-0.5,2-0.7,3.2-0.7c2.3,0,4,0.8,5.3,2.3c1.3,1.6,1.9,3.8,1.9,6.8h-12.7V524.9z M210.2,523.3
				c0-0.8-0.1-1.6-0.3-2.3s-0.6-1.3-1-1.8s-1-0.9-1.6-1.2c-0.7-0.3-1.4-0.5-2.3-0.5c-0.8,0-1.6,0.2-2.2,0.5
				c-0.6,0.3-1.2,0.7-1.7,1.3c-0.5,0.5-0.8,1.1-1.1,1.8s-0.5,1.4-0.5,2.2H210.2z"/>
		</g>
	</g>
	<g>
		<g>
			<path d="M217.6,532.7h-1.9v-16.5h1.9v2.5h0.1c0.5-1,1.2-1.7,2.1-2.2c0.9-0.5,1.9-0.7,3-0.7c0.8,0,1.4,0.1,1.9,0.3s1,0.4,1.4,0.7
				s0.7,0.6,0.9,1s0.4,0.8,0.6,1.2c0.6-1.1,1.3-1.9,2.2-2.4s2-0.8,3.2-0.8c1.1,0,2,0.2,2.7,0.6c0.7,0.4,1.2,0.9,1.5,1.5
				c0.4,0.6,0.6,1.3,0.7,2.1c0.1,0.8,0.2,1.6,0.2,2.4v10.4h-1.9v-11.4c0-1.2-0.2-2.1-0.7-2.8s-1.4-1-2.8-1c-0.7,0-1.4,0.2-2,0.5
				s-1.2,0.8-1.7,1.4c-0.2,0.3-0.4,0.6-0.5,1s-0.2,0.8-0.3,1.2s-0.1,0.8-0.2,1.2c0,0.4,0,0.8,0,1.1v8.9h-1.9v-11.4
				c0-1.2-0.2-2.1-0.7-2.8s-1.4-1-2.8-1c-0.7,0-1.4,0.2-2,0.5s-1.2,0.8-1.7,1.4c-0.2,0.3-0.4,0.6-0.5,1s-0.2,0.8-0.3,1.2
				s-0.1,0.8-0.2,1.2s0,0.8,0,1.1v8.6H217.6z"/>
		</g>
	</g>
	<g>
		<g>
			<path d="M250,523.1c0.4,0,0.8-0.1,1.3-0.2c0.5-0.1,0.9-0.2,1.2-0.3s0.5-0.4,0.6-0.7s0.1-0.7,0.1-1c0-1-0.3-1.8-0.9-2.4
				c-0.6-0.6-1.7-0.9-3.2-0.9c-0.7,0-1.3,0.1-1.8,0.2c-0.6,0.1-1,0.3-1.4,0.6s-0.8,0.7-1,1.1c-0.3,0.5-0.4,1.1-0.5,1.8h-1.9
				c0.1-1,0.3-1.8,0.7-2.5s0.9-1.2,1.5-1.7s1.3-0.8,2.1-1s1.6-0.3,2.5-0.3c0.8,0,1.6,0.1,2.3,0.3s1.4,0.5,1.9,0.9s1,0.9,1.3,1.6
				c0.3,0.7,0.5,1.5,0.5,2.4v9c0,0.7,0.1,1.2,0.4,1.4c0.3,0.2,0.8,0.2,1.6-0.1v1.5c-0.1,0-0.4,0.1-0.7,0.2c-0.3,0.1-0.6,0.1-0.8,0.1
				c-0.3,0-0.6,0-0.9-0.1c-0.3,0-0.6-0.1-0.8-0.3s-0.3-0.3-0.5-0.6c-0.1-0.2-0.2-0.5-0.2-0.7c0-0.3-0.1-0.5-0.1-0.8
				c-0.8,0.9-1.7,1.6-2.8,2c-1,0.5-2.2,0.7-3.4,0.7c-0.7,0-1.4-0.1-2.1-0.3c-0.7-0.2-1.3-0.5-1.8-0.9s-0.9-0.9-1.2-1.5
				s-0.4-1.3-0.4-2.1c0-2.8,1.9-4.4,5.8-5L250,523.1z M253.2,524c-0.8,0.3-1.6,0.6-2.4,0.7c-0.8,0.1-1.7,0.2-2.5,0.3
				c-1.5,0.1-2.6,0.4-3.4,1c-0.8,0.6-1.2,1.4-1.2,2.5c0,0.5,0.1,0.9,0.3,1.3c0.2,0.4,0.5,0.7,0.8,0.9s0.7,0.4,1.1,0.5
				c0.4,0.1,0.9,0.2,1.3,0.2c0.8,0,1.5-0.1,2.2-0.3s1.4-0.5,1.9-0.9c0.6-0.4,1-0.9,1.4-1.5c0.3-0.6,0.5-1.3,0.5-2.1L253.2,524
				L253.2,524z"/>
		</g>
	</g>
	<g>
		<g>
			<path d="M262,532.7h-1.9v-16.5h1.9v2.3c0.8-0.8,1.6-1.5,2.4-2s1.8-0.8,2.9-0.8c1,0,2,0.2,2.8,0.5c0.9,0.3,1.6,1,2.2,1.8
				c0.4,0.6,0.6,1.2,0.7,1.8s0.1,1.3,0.1,2v10.8h-1.9v-10.7c0-1.5-0.3-2.6-1-3.3s-1.7-1.1-3.3-1.1c-0.6,0-1.1,0.1-1.6,0.3
				s-0.9,0.4-1.3,0.7s-0.7,0.6-1,1s-0.5,0.8-0.6,1.2c-0.2,0.5-0.3,1-0.3,1.5s-0.1,1-0.1,1.6L262,532.7L262,532.7z"/>
		</g>
	</g>
	<g>
		<g>
			<path d="M283.6,532.7c-0.2,0-0.5,0.1-0.9,0.2c-0.4,0.1-0.8,0.2-1.3,0.2c-1,0-1.7-0.2-2.2-0.7s-0.7-1.3-0.7-2.6v-12h-2.3v-1.6h2.3
				v-4.6h1.9v4.6h3.1v1.6h-3.1v11.3c0,0.4,0,0.8,0,1c0,0.3,0.1,0.5,0.2,0.7s0.3,0.3,0.5,0.4c0.2,0.1,0.5,0.1,0.9,0.1
				c0.3,0,0.5,0,0.8-0.1c0.3,0,0.5-0.1,0.8-0.2L283.6,532.7L283.6,532.7z"/>
		</g>
	</g>
	<g>
		<g>
			<path d="M286.8,512.6v-2.8h2.1v2.8H286.8z M286.9,532.7v-16.5h1.9v16.5H286.9z"/>
		</g>
	</g>
	<g>
		<g>
			<path d="M305.3,521.4c-0.3-1.2-0.9-2.2-1.7-2.9c-0.8-0.7-1.9-1-3.1-1c-1,0-1.8,0.2-2.5,0.6s-1.3,0.9-1.7,1.6
				c-0.4,0.7-0.8,1.4-1,2.3c-0.2,0.8-0.3,1.7-0.3,2.5c0,0.9,0.1,1.7,0.3,2.5c0.2,0.8,0.5,1.6,1,2.2c0.4,0.7,1,1.2,1.7,1.6
				c0.7,0.4,1.5,0.6,2.5,0.6c1.4,0,2.6-0.4,3.4-1.2c0.9-0.8,1.4-1.9,1.6-3.2h2c-0.2,0.9-0.4,1.7-0.8,2.5s-0.8,1.4-1.4,1.9
				s-1.3,1-2.1,1.3s-1.7,0.4-2.8,0.4c-1.3,0-2.4-0.2-3.4-0.7c-1-0.4-1.7-1.1-2.4-1.8c-0.6-0.8-1.1-1.7-1.4-2.7s-0.4-2.2-0.4-3.4
				c0-1.1,0.2-2.2,0.5-3.3c0.3-1,0.8-2,1.4-2.8s1.4-1.4,2.4-1.9c0.9-0.5,2-0.7,3.3-0.7c1.9,0,3.4,0.5,4.6,1.4s1.9,2.3,2.2,4.3
				L305.3,521.4L305.3,521.4z"/>
		</g>
	</g>
	<g>
		<g>
			<path d="M318.9,523.1c0.4,0,0.8-0.1,1.3-0.2c0.5-0.1,0.9-0.2,1.2-0.3c0.3-0.1,0.5-0.4,0.6-0.7s0.1-0.7,0.1-1c0-1-0.3-1.8-0.9-2.4
				c-0.6-0.6-1.7-0.9-3.2-0.9c-0.7,0-1.3,0.1-1.8,0.2c-0.6,0.1-1,0.3-1.4,0.6s-0.8,0.7-1,1.1c-0.3,0.5-0.4,1.1-0.5,1.8h-1.9
				c0.1-1,0.3-1.8,0.7-2.5s0.9-1.2,1.5-1.7s1.3-0.8,2.1-1c0.8-0.2,1.6-0.3,2.5-0.3c0.8,0,1.6,0.1,2.3,0.3s1.4,0.5,1.9,0.9
				s1,0.9,1.3,1.6c0.3,0.7,0.5,1.5,0.5,2.4v9c0,0.7,0.1,1.2,0.4,1.4s0.8,0.2,1.6-0.1v1.5c-0.1,0-0.4,0.1-0.7,0.2
				c-0.3,0.1-0.6,0.1-0.8,0.1c-0.3,0-0.6,0-0.9-0.1c-0.3,0-0.6-0.1-0.8-0.3c-0.2-0.2-0.3-0.3-0.5-0.6c-0.1-0.2-0.2-0.5-0.2-0.7
				c0-0.3-0.1-0.5-0.1-0.8c-0.8,0.9-1.7,1.6-2.8,2c-1,0.5-2.2,0.7-3.4,0.7c-0.7,0-1.4-0.1-2.1-0.3s-1.3-0.5-1.8-0.9
				s-0.9-0.9-1.2-1.5c-0.3-0.6-0.4-1.3-0.4-2.1c0-2.8,1.9-4.4,5.8-5L318.9,523.1z M322.1,524c-0.8,0.3-1.6,0.6-2.4,0.7
				c-0.8,0.1-1.7,0.2-2.5,0.3c-1.5,0.1-2.6,0.4-3.4,1s-1.2,1.4-1.2,2.5c0,0.5,0.1,0.9,0.3,1.3c0.2,0.4,0.5,0.7,0.8,0.9
				s0.7,0.4,1.1,0.5s0.9,0.2,1.3,0.2c0.8,0,1.5-0.1,2.2-0.3s1.4-0.5,1.9-0.9c0.6-0.4,1-0.9,1.4-1.5c0.3-0.6,0.5-1.3,0.5-2.1
				L322.1,524L322.1,524z"/>
		</g>
	</g>
	<g>
		<g>
			<path d="M329.3,532.7v-22.9h1.9v22.9H329.3z"/>
		</g>
	</g>
	<g>
		<g>
			<path d="M336.3,532.7v-22.9h1.9v22.9H336.3z"/>
		</g>
	</g>
	<g>
		<g>
			<path d="M343,537.1c0.3,0,0.5,0.1,0.8,0.1s0.5,0.1,0.8,0.1c0.5,0,1-0.2,1.3-0.5s0.6-0.7,0.8-1.2c0.2-0.5,0.4-1,0.6-1.5
				c0.1-0.5,0.3-1,0.5-1.3l-6.4-16.6h2.1l5.3,14.1l5.3-14.1h2.1l-6.1,16.2c-0.4,1-0.7,2-1.1,2.8s-0.7,1.5-1.1,2.1s-0.8,1-1.3,1.3
				s-1,0.5-1.7,0.5c-0.3,0-0.7,0-1-0.1c-0.3,0-0.6-0.1-0.8-0.2L343,537.1L343,537.1z"/>
		</g>
	</g>
	<g>
		<g>
			<path d="M366,523.4v2h-8v-2H366z"/>
		</g>
	</g>
	<g>
		<g>
			<path d="M382.3,516.2h1.9v14.9c0,1.1-0.1,2.2-0.3,3.2c-0.2,1-0.6,1.9-1.2,2.7s-1.4,1.4-2.4,1.8c-1,0.5-2.3,0.7-3.8,0.7
				c-1.2,0-2.2-0.2-3.1-0.5s-1.6-0.7-2.1-1.2c-0.6-0.5-1-1-1.3-1.5s-0.4-1.1-0.5-1.6h2c0.1,0.6,0.4,1.1,0.7,1.5
				c0.3,0.4,0.7,0.7,1.1,0.9s0.9,0.4,1.4,0.5s1.1,0.1,1.7,0.1c1.3,0,2.3-0.2,3.1-0.7c0.8-0.4,1.4-1,1.8-1.7s0.7-1.5,0.8-2.4
				c0.1-0.9,0.2-1.8,0.1-2.8c-0.6,1-1.5,1.8-2.5,2.3c-1.1,0.5-2.2,0.8-3.4,0.8c-1.3,0-2.3-0.2-3.3-0.7c-0.9-0.5-1.7-1.1-2.3-1.9
				c-0.6-0.8-1.1-1.7-1.4-2.8s-0.4-2.2-0.4-3.3c0-1.2,0.1-2.3,0.4-3.4s0.7-2,1.3-2.7c0.6-0.8,1.4-1.4,2.3-1.8
				c0.9-0.4,2.1-0.7,3.4-0.7c0.5,0,1.1,0.1,1.6,0.2c0.6,0.1,1.1,0.4,1.6,0.6c0.5,0.3,1,0.6,1.4,1s0.8,0.9,1.1,1.4h0.1v-2.9H382.3z
				 M382.3,524.5c0-1-0.1-1.9-0.4-2.8c-0.2-0.9-0.6-1.6-1.1-2.2c-0.5-0.6-1-1.1-1.7-1.5s-1.5-0.5-2.4-0.5c-0.8,0-1.5,0.1-2.2,0.4
				s-1.3,0.7-1.8,1.3s-0.9,1.2-1.2,2c-0.3,0.8-0.4,1.7-0.4,2.7s0,2,0.3,2.9s0.6,1.7,1,2.4c0.5,0.7,1.1,1.2,1.8,1.6
				c0.7,0.4,1.6,0.6,2.6,0.6c0.9,0,1.6-0.2,2.3-0.6c0.7-0.4,1.3-0.9,1.7-1.5c0.5-0.6,0.8-1.4,1.1-2.2
				C382.2,526.3,382.3,525.4,382.3,524.5z"/>
		</g>
	</g>
	<g>
		<g>
			<path d="M390.2,524.9c0,0.9,0.1,1.7,0.3,2.5c0.2,0.8,0.6,1.5,1,2.1c0.5,0.6,1,1,1.7,1.4c0.7,0.3,1.5,0.5,2.4,0.5
				c1.2,0,2.3-0.3,3.2-1c0.9-0.7,1.5-1.6,1.8-2.8h2.1c-0.2,0.8-0.5,1.5-0.9,2.2s-0.9,1.2-1.4,1.7c-0.6,0.5-1.3,0.9-2,1.2
				c-0.8,0.3-1.7,0.4-2.7,0.4c-1.3,0-2.4-0.2-3.4-0.7c-1-0.4-1.7-1.1-2.4-1.8c-0.6-0.8-1.1-1.7-1.4-2.7s-0.4-2.2-0.4-3.4
				s0.2-2.3,0.5-3.4s0.8-2,1.5-2.8c0.6-0.8,1.4-1.4,2.4-1.9c0.9-0.5,2-0.7,3.2-0.7c2.3,0,4,0.8,5.3,2.3c1.3,1.6,1.9,3.8,1.9,6.8
				h-12.7V524.9z M400.9,523.3c0-0.8-0.1-1.6-0.3-2.3c-0.2-0.7-0.6-1.3-1-1.8s-1-0.9-1.6-1.2c-0.7-0.3-1.4-0.5-2.3-0.5
				c-0.8,0-1.6,0.2-2.2,0.5s-1.2,0.7-1.7,1.3c-0.5,0.5-0.8,1.1-1.1,1.8s-0.5,1.4-0.5,2.2H400.9z"/>
		</g>
	</g>
	<g>
		<g>
			<path d="M408.6,532.7h-1.9v-16.5h1.9v2.3c0.8-0.8,1.6-1.5,2.4-2s1.8-0.8,2.9-0.8c1,0,2,0.2,2.8,0.5c0.9,0.3,1.6,1,2.2,1.8
				c0.4,0.6,0.6,1.2,0.7,1.8s0.1,1.3,0.1,2v10.8h-1.9v-10.7c0-1.5-0.3-2.6-1-3.3s-1.7-1.1-3.3-1.1c-0.6,0-1.1,0.1-1.6,0.3
				s-0.9,0.4-1.3,0.7s-0.7,0.6-1,1s-0.5,0.8-0.6,1.2c-0.2,0.5-0.3,1-0.3,1.5s-0.1,1-0.1,1.6L408.6,532.7L408.6,532.7z"/>
		</g>
	</g>
	<g>
		<g>
			<path d="M425.5,524.9c0,0.9,0.1,1.7,0.3,2.5c0.2,0.8,0.6,1.5,1,2.1c0.5,0.6,1,1,1.7,1.4c0.7,0.3,1.5,0.5,2.4,0.5
				c1.2,0,2.3-0.3,3.2-1c0.9-0.7,1.5-1.6,1.8-2.8h2.1c-0.2,0.8-0.5,1.5-0.9,2.2s-0.9,1.2-1.4,1.7c-0.6,0.5-1.3,0.9-2,1.2
				c-0.8,0.3-1.7,0.4-2.7,0.4c-1.3,0-2.4-0.2-3.4-0.7c-1-0.4-1.7-1.1-2.4-1.8c-0.6-0.8-1.1-1.7-1.4-2.7s-0.4-2.2-0.4-3.4
				s0.2-2.3,0.5-3.4s0.8-2,1.5-2.8c0.6-0.8,1.4-1.4,2.4-1.9c0.9-0.5,2-0.7,3.2-0.7c2.3,0,4,0.8,5.3,2.3c1.3,1.6,1.9,3.8,1.9,6.8
				h-12.7V524.9z M436.3,523.3c0-0.8-0.1-1.6-0.3-2.3c-0.2-0.7-0.6-1.3-1-1.8s-1-0.9-1.6-1.2c-0.7-0.3-1.4-0.5-2.3-0.5
				c-0.8,0-1.6,0.2-2.2,0.5s-1.2,0.7-1.7,1.3c-0.5,0.5-0.8,1.1-1.1,1.8s-0.5,1.4-0.5,2.2H436.3z"/>
		</g>
	</g>
	<g>
		<g>
			<path d="M444,532.7h-1.9v-16.5h1.9v3.1h0.1c0.5-1.3,1.2-2.2,2-2.7s1.9-0.8,3.3-0.8v2.1c-1.1,0-2,0.1-2.7,0.5s-1.3,0.8-1.7,1.5
				c-0.4,0.6-0.7,1.3-0.9,2.2s-0.2,1.7-0.2,2.6v8H444z"/>
		</g>
	</g>
	<g>
		<g>
			<path d="M460.2,523.1c0.4,0,0.8-0.1,1.3-0.2c0.5-0.1,0.9-0.2,1.2-0.3c0.3-0.1,0.5-0.4,0.6-0.7s0.1-0.7,0.1-1c0-1-0.3-1.8-0.9-2.4
				s-1.7-0.9-3.2-0.9c-0.7,0-1.3,0.1-1.8,0.2c-0.6,0.1-1,0.3-1.4,0.6s-0.8,0.7-1,1.1c-0.3,0.5-0.4,1.1-0.5,1.8h-1.9
				c0.1-1,0.3-1.8,0.7-2.5c0.4-0.7,0.9-1.2,1.5-1.7s1.3-0.8,2.1-1c0.8-0.2,1.6-0.3,2.5-0.3c0.8,0,1.6,0.1,2.3,0.3
				c0.7,0.2,1.4,0.5,1.9,0.9s1,0.9,1.3,1.6c0.3,0.7,0.5,1.5,0.5,2.4v9c0,0.7,0.1,1.2,0.4,1.4s0.8,0.2,1.6-0.1v1.5
				c-0.1,0-0.4,0.1-0.7,0.2s-0.6,0.1-0.8,0.1c-0.3,0-0.6,0-0.9-0.1c-0.3,0-0.6-0.1-0.8-0.3c-0.2-0.2-0.3-0.3-0.5-0.6
				c-0.1-0.2-0.2-0.5-0.2-0.7c0-0.3-0.1-0.5-0.1-0.8c-0.8,0.9-1.7,1.6-2.8,2s-2.2,0.7-3.4,0.7c-0.7,0-1.4-0.1-2.1-0.3
				s-1.3-0.5-1.8-0.9s-0.9-0.9-1.2-1.5c-0.3-0.6-0.4-1.3-0.4-2.1c0-2.8,1.9-4.4,5.8-5L460.2,523.1z M463.4,524
				c-0.8,0.3-1.6,0.6-2.4,0.7c-0.8,0.1-1.7,0.2-2.5,0.3c-1.5,0.1-2.6,0.4-3.4,1s-1.2,1.4-1.2,2.5c0,0.5,0.1,0.9,0.3,1.3
				c0.2,0.4,0.5,0.7,0.8,0.9s0.7,0.4,1.1,0.5s0.9,0.2,1.3,0.2c0.8,0,1.5-0.1,2.2-0.3s1.4-0.5,1.9-0.9c0.6-0.4,1-0.9,1.4-1.5
				c0.3-0.6,0.5-1.3,0.5-2.1L463.4,524L463.4,524z"/>
		</g>
	</g>
	<g>
		<g>
			<path d="M476.1,532.7c-0.2,0-0.5,0.1-0.9,0.2c-0.4,0.1-0.8,0.2-1.3,0.2c-1,0-1.7-0.2-2.2-0.7s-0.7-1.3-0.7-2.6v-12h-2.3v-1.6h2.3
				v-4.6h1.9v4.6h3.1v1.6h-3.1v11.3c0,0.4,0,0.8,0,1c0,0.3,0.1,0.5,0.2,0.7s0.3,0.3,0.5,0.4c0.2,0.1,0.5,0.1,0.9,0.1
				c0.3,0,0.5,0,0.8-0.1c0.3,0,0.5-0.1,0.8-0.2L476.1,532.7L476.1,532.7z"/>
		</g>
	</g>
	<g>
		<g>
			<path d="M480.3,524.9c0,0.9,0.1,1.7,0.3,2.5c0.2,0.8,0.6,1.5,1,2.1c0.5,0.6,1,1,1.7,1.4s1.5,0.5,2.4,0.5c1.2,0,2.3-0.3,3.2-1
				c0.9-0.7,1.5-1.6,1.8-2.8h2.1c-0.2,0.8-0.5,1.5-0.9,2.2s-0.9,1.2-1.4,1.7s-1.3,0.9-2,1.2c-0.8,0.3-1.7,0.4-2.7,0.4
				c-1.3,0-2.4-0.2-3.4-0.7c-1-0.4-1.7-1.1-2.4-1.8c-0.6-0.8-1.1-1.7-1.4-2.7s-0.4-2.2-0.4-3.4s0.2-2.3,0.5-3.4
				c0.3-1.1,0.8-2,1.5-2.8s1.4-1.4,2.4-1.9c0.9-0.5,2-0.7,3.2-0.7c2.3,0,4,0.8,5.3,2.3c1.3,1.6,1.9,3.8,1.9,6.8h-12.7V524.9z
				 M491,523.3c0-0.8-0.1-1.6-0.3-2.3c-0.2-0.7-0.6-1.3-1-1.8s-1-0.9-1.6-1.2c-0.7-0.3-1.4-0.5-2.3-0.5s-1.6,0.2-2.2,0.5
				s-1.2,0.7-1.7,1.3c-0.5,0.5-0.8,1.1-1.1,1.8c-0.3,0.7-0.5,1.4-0.5,2.2H491z"/>
		</g>
	</g>
	<g>
		<g>
			<path d="M509.5,509.8h1.9v22.9h-1.9v-2.9h-0.1c-0.3,0.6-0.6,1-1.1,1.4c-0.4,0.4-0.9,0.8-1.4,1s-1.1,0.5-1.6,0.6
				c-0.6,0.1-1.1,0.2-1.6,0.2c-1.3,0-2.5-0.2-3.4-0.7c-0.9-0.4-1.7-1.1-2.3-1.8c-0.6-0.8-1-1.7-1.3-2.7c-0.3-1.1-0.4-2.2-0.4-3.4
				c0-1.1,0.1-2.2,0.4-3.3s0.7-2,1.4-2.8c0.6-0.8,1.4-1.4,2.3-1.9s2-0.7,3.3-0.7c1.2,0,2.3,0.3,3.4,0.8s1.9,1.3,2.5,2.3L509.5,509.8
				L509.5,509.8z M509.5,524.4c0-0.9-0.1-1.8-0.4-2.7c-0.3-0.8-0.6-1.6-1.1-2.2s-1.1-1.1-1.7-1.5c-0.7-0.4-1.5-0.6-2.3-0.6
				c-1,0-1.9,0.2-2.6,0.6c-0.7,0.4-1.3,0.9-1.8,1.6c-0.5,0.7-0.8,1.5-1,2.4s-0.3,1.9-0.3,2.9s0.1,2,0.4,2.7c0.3,0.8,0.7,1.5,1.2,2
				c0.5,0.6,1.1,1,1.8,1.3c0.7,0.3,1.4,0.4,2.2,0.4c0.9,0,1.7-0.2,2.4-0.5s1.3-0.9,1.7-1.5c0.5-0.6,0.8-1.4,1.1-2.2
				C509.4,526.3,509.5,525.4,509.5,524.4z"/>
		</g>
	</g>
	<g>
		<g>
			<path d="M527.2,532.7h-1.9v-22.9h1.9v9.1c0.6-1,1.5-1.8,2.5-2.3c1.1-0.5,2.2-0.8,3.4-0.8s2.3,0.2,3.3,0.7
				c0.9,0.5,1.7,1.1,2.3,1.9c0.6,0.8,1.1,1.7,1.4,2.8c0.3,1.1,0.4,2.2,0.4,3.3c0,1.2-0.1,2.3-0.4,3.4s-0.7,2-1.3,2.7
				c-0.6,0.8-1.4,1.4-2.3,1.8c-0.9,0.4-2.1,0.7-3.4,0.7c-0.5,0-1.1-0.1-1.6-0.2c-0.6-0.1-1.1-0.4-1.6-0.6c-0.5-0.3-1-0.6-1.4-1
				s-0.8-0.9-1.1-1.4h-0.1v2.8H527.2z M527.2,524.4c0,1,0.1,1.9,0.4,2.8c0.2,0.9,0.6,1.6,1.1,2.2s1,1.1,1.7,1.5s1.5,0.5,2.4,0.5
				c0.8,0,1.5-0.1,2.2-0.4s1.3-0.7,1.8-1.3s0.9-1.2,1.2-2s0.4-1.7,0.4-2.7s0-2-0.3-2.9s-0.6-1.7-1-2.4c-0.5-0.7-1.1-1.2-1.8-1.6
				c-0.7-0.4-1.6-0.6-2.6-0.6c-0.9,0-1.6,0.2-2.3,0.6c-0.7,0.4-1.3,0.9-1.7,1.5s-0.8,1.4-1.1,2.2
				C527.3,522.5,527.2,523.4,527.2,524.4z"/>
		</g>
	</g>
	<g>
		<g>
			<path d="M545.6,524.9c0,0.9,0.1,1.7,0.3,2.5s0.6,1.5,1,2.1c0.5,0.6,1,1,1.7,1.4s1.5,0.5,2.4,0.5c1.2,0,2.3-0.3,3.2-1
				s1.5-1.6,1.8-2.8h2.1c-0.2,0.8-0.5,1.5-0.9,2.2s-0.9,1.2-1.4,1.7s-1.3,0.9-2,1.2c-0.8,0.3-1.7,0.4-2.7,0.4
				c-1.3,0-2.4-0.2-3.4-0.7c-1-0.4-1.7-1.1-2.4-1.8c-0.6-0.8-1.1-1.7-1.4-2.7s-0.4-2.2-0.4-3.4s0.2-2.3,0.5-3.4
				c0.3-1.1,0.8-2,1.5-2.8s1.4-1.4,2.4-1.9c0.9-0.5,2-0.7,3.2-0.7c2.3,0,4,0.8,5.3,2.3c1.3,1.6,1.9,3.8,1.9,6.8h-12.7V524.9z
				 M556.4,523.3c0-0.8-0.1-1.6-0.3-2.3s-0.6-1.3-1-1.8s-1-0.9-1.6-1.2c-0.7-0.3-1.4-0.5-2.3-0.5s-1.6,0.2-2.2,0.5
				c-0.6,0.3-1.2,0.7-1.7,1.3c-0.5,0.5-0.8,1.1-1.1,1.8s-0.5,1.4-0.5,2.2H556.4z"/>
		</g>
	</g>
	<g>
		<g>
			<path d="M563.3,524.9c0,0.9,0.1,1.7,0.3,2.5s0.6,1.5,1,2.1c0.5,0.6,1,1,1.7,1.4s1.5,0.5,2.4,0.5c1.2,0,2.3-0.3,3.2-1
				s1.5-1.6,1.8-2.8h2.1c-0.2,0.8-0.5,1.5-0.9,2.2s-0.9,1.2-1.4,1.7s-1.3,0.9-2,1.2c-0.8,0.3-1.7,0.4-2.7,0.4
				c-1.3,0-2.4-0.2-3.4-0.7c-1-0.4-1.7-1.1-2.4-1.8c-0.6-0.8-1.1-1.7-1.4-2.7s-0.4-2.2-0.4-3.4s0.2-2.3,0.5-3.4
				c0.3-1.1,0.8-2,1.5-2.8s1.4-1.4,2.4-1.9c0.9-0.5,2-0.7,3.2-0.7c2.3,0,4,0.8,5.3,2.3c1.3,1.6,1.9,3.8,1.9,6.8h-12.7V524.9z
				 M574,523.3c0-0.8-0.1-1.6-0.3-2.3s-0.6-1.3-1-1.8s-1-0.9-1.6-1.2c-0.7-0.3-1.4-0.5-2.3-0.5s-1.6,0.2-2.2,0.5
				c-0.6,0.3-1.2,0.7-1.7,1.3c-0.5,0.5-0.8,1.1-1.1,1.8s-0.5,1.4-0.5,2.2H574z"/>
		</g>
	</g>
	<g>
		<g>
			<path d="M581.8,532.7h-1.9v-16.5h1.9v3.1h0.1c0.5-1.3,1.2-2.2,2-2.7s1.9-0.8,3.3-0.8v2.1c-1.1,0-2,0.1-2.7,0.5s-1.3,0.8-1.7,1.5
				c-0.4,0.6-0.7,1.3-0.9,2.2c-0.2,0.8-0.2,1.7-0.2,2.6v8H581.8z"/>
		</g>
	</g>
	<g>
		<g>
			<path d="M600.3,527.5c0.3,1.4,0.8,2.4,1.6,3s1.9,0.9,3.3,0.9c0.7,0,1.3-0.1,1.8-0.3s0.9-0.4,1.3-0.7s0.6-0.6,0.7-1
				c0.2-0.4,0.3-0.7,0.3-1.1c0-0.8-0.3-1.4-0.8-1.8c-0.5-0.4-1.2-0.7-2-0.9s-1.6-0.4-2.5-0.6c-0.9-0.2-1.8-0.4-2.5-0.7
				c-0.8-0.3-1.4-0.8-2-1.4c-0.5-0.6-0.8-1.4-0.8-2.5c0-1.4,0.5-2.5,1.5-3.4s2.4-1.3,4.3-1.3c1.8,0,3.2,0.4,4.3,1.2s1.8,2.1,2,4H609
				c-0.2-1.3-0.7-2.2-1.4-2.7c-0.8-0.5-1.8-0.8-3-0.8s-2.1,0.3-2.8,0.8c-0.6,0.5-1,1.2-1,2c0,0.7,0.3,1.3,0.8,1.7s1.2,0.7,2,1
				c0.8,0.2,1.6,0.5,2.5,0.7s1.8,0.5,2.5,0.8c0.8,0.3,1.4,0.8,2,1.4c0.5,0.6,0.8,1.4,0.8,2.5c0,0.8-0.2,1.5-0.5,2.1
				s-0.8,1.1-1.4,1.5c-0.6,0.4-1.3,0.7-2.1,0.9s-1.7,0.3-2.7,0.3s-1.8-0.1-2.6-0.4s-1.4-0.7-1.9-1.2s-0.9-1.1-1.2-1.8
				s-0.5-1.4-0.5-2.2H600.3z"/>
		</g>
	</g>
	<g>
		<g>
			<path d="M616.3,524.9c0,0.9,0.1,1.7,0.3,2.5s0.6,1.5,1,2.1c0.5,0.6,1,1,1.7,1.4s1.5,0.5,2.4,0.5c1.2,0,2.3-0.3,3.2-1
				s1.5-1.6,1.8-2.8h2.1c-0.2,0.8-0.5,1.5-0.9,2.2s-0.9,1.2-1.4,1.7s-1.3,0.9-2,1.2c-0.8,0.3-1.7,0.4-2.7,0.4
				c-1.3,0-2.4-0.2-3.4-0.7c-1-0.4-1.7-1.1-2.4-1.8c-0.6-0.8-1.1-1.7-1.4-2.7s-0.4-2.2-0.4-3.4s0.2-2.3,0.5-3.4
				c0.3-1.1,0.8-2,1.5-2.8s1.4-1.4,2.4-1.9c0.9-0.5,2-0.7,3.2-0.7c2.3,0,4,0.8,5.3,2.3c1.3,1.6,1.9,3.8,1.9,6.8h-12.7V524.9z
				 M627,523.3c0-0.8-0.1-1.6-0.3-2.3s-0.6-1.3-1-1.8s-1-0.9-1.6-1.2c-0.7-0.3-1.4-0.5-2.3-0.5s-1.6,0.2-2.2,0.5
				c-0.6,0.3-1.2,0.7-1.7,1.3c-0.5,0.5-0.8,1.1-1.1,1.8s-0.5,1.4-0.5,2.2H627z"/>
		</g>
	</g>
	<g>
		<g>
			<path d="M640.3,523.1c0.4,0,0.8-0.1,1.3-0.2c0.5-0.1,0.9-0.2,1.2-0.3s0.5-0.4,0.6-0.7s0.1-0.7,0.1-1c0-1-0.3-1.8-0.9-2.4
				s-1.7-0.9-3.2-0.9c-0.7,0-1.3,0.1-1.8,0.2c-0.6,0.1-1,0.3-1.4,0.6s-0.8,0.7-1,1.1c-0.3,0.5-0.4,1.1-0.5,1.8h-1.9
				c0.1-1,0.3-1.8,0.7-2.5s0.9-1.2,1.5-1.7s1.3-0.8,2.1-1s1.6-0.3,2.5-0.3c0.8,0,1.6,0.1,2.3,0.3s1.4,0.5,1.9,0.9s1,0.9,1.3,1.6
				c0.3,0.7,0.5,1.5,0.5,2.4v9c0,0.7,0.1,1.2,0.4,1.4s0.8,0.2,1.6-0.1v1.5c-0.1,0-0.4,0.1-0.7,0.2s-0.6,0.1-0.8,0.1
				c-0.3,0-0.6,0-0.9-0.1c-0.3,0-0.6-0.1-0.8-0.3s-0.3-0.3-0.5-0.6c-0.1-0.2-0.2-0.5-0.2-0.7c0-0.3-0.1-0.5-0.1-0.8
				c-0.8,0.9-1.7,1.6-2.8,2s-2.2,0.7-3.4,0.7c-0.7,0-1.4-0.1-2.1-0.3c-0.7-0.2-1.3-0.5-1.8-0.9s-0.9-0.9-1.2-1.5s-0.4-1.3-0.4-2.1
				c0-2.8,1.9-4.4,5.8-5L640.3,523.1z M643.5,524c-0.8,0.3-1.6,0.6-2.4,0.7c-0.8,0.1-1.7,0.2-2.5,0.3c-1.5,0.1-2.6,0.4-3.4,1
				c-0.8,0.6-1.2,1.4-1.2,2.5c0,0.5,0.1,0.9,0.3,1.3c0.2,0.4,0.5,0.7,0.8,0.9s0.7,0.4,1.1,0.5c0.4,0.1,0.9,0.2,1.3,0.2
				c0.8,0,1.5-0.1,2.2-0.3s1.4-0.5,1.9-0.9c0.6-0.4,1-0.9,1.4-1.5c0.3-0.6,0.5-1.3,0.5-2.1L643.5,524L643.5,524z"/>
		</g>
	</g>
	<g>
		<g>
			<path d="M652.4,532.7h-1.9v-16.5h1.9v3.1h0.1c0.5-1.3,1.2-2.2,2-2.7s1.9-0.8,3.3-0.8v2.1c-1.1,0-2,0.1-2.7,0.5s-1.3,0.8-1.7,1.5
				c-0.4,0.6-0.7,1.3-0.9,2.2c-0.2,0.8-0.2,1.7-0.2,2.6v8H652.4z"/>
		</g>
	</g>
	<g>
		<g>
			<path d="M672.7,521.4c-0.3-1.2-0.9-2.2-1.7-2.9s-1.9-1-3.1-1c-1,0-1.8,0.2-2.5,0.6s-1.3,0.9-1.7,1.6c-0.4,0.7-0.8,1.4-1,2.3
				s-0.3,1.7-0.3,2.5c0,0.9,0.1,1.7,0.3,2.5s0.5,1.6,1,2.2c0.4,0.7,1,1.2,1.7,1.6c0.7,0.4,1.5,0.6,2.5,0.6c1.4,0,2.6-0.4,3.4-1.2
				c0.9-0.8,1.4-1.9,1.6-3.2h2c-0.2,0.9-0.4,1.7-0.8,2.5c-0.4,0.8-0.8,1.4-1.4,1.9c-0.6,0.5-1.3,1-2.1,1.3s-1.7,0.4-2.8,0.4
				c-1.3,0-2.4-0.2-3.4-0.7c-1-0.4-1.7-1.1-2.4-1.8c-0.6-0.8-1.1-1.7-1.4-2.7s-0.4-2.2-0.4-3.4c0-1.1,0.2-2.2,0.5-3.3
				c0.3-1,0.8-2,1.4-2.8c0.6-0.8,1.4-1.4,2.4-1.9c0.9-0.5,2-0.7,3.3-0.7c1.9,0,3.4,0.5,4.6,1.4c1.2,0.9,1.9,2.3,2.2,4.3L672.7,521.4
				L672.7,521.4z"/>
		</g>
	</g>
	<g>
		<g>
			<path d="M678.7,532.7v-22.9h1.9v8.7c0.8-0.8,1.6-1.5,2.4-2c0.8-0.5,1.8-0.8,2.9-0.8c1,0,2,0.2,2.8,0.5s1.6,1,2.2,1.8
				c0.4,0.6,0.6,1.2,0.7,1.8s0.1,1.3,0.1,2v10.8h-1.9v-10.7c0-1.5-0.3-2.6-1-3.3s-1.7-1.1-3.3-1.1c-0.6,0-1.1,0.1-1.6,0.3
				s-0.9,0.4-1.3,0.7c-0.4,0.3-0.7,0.6-1,1s-0.5,0.8-0.6,1.2c-0.2,0.5-0.3,1-0.3,1.5s-0.1,1-0.1,1.6v8.9H678.7z"/>
		</g>
	</g>
	<g>
		<g>
			<path d="M706.4,524.9c0,0.9,0.1,1.7,0.3,2.5s0.6,1.5,1,2.1c0.5,0.6,1,1,1.7,1.4s1.5,0.5,2.4,0.5c1.2,0,2.3-0.3,3.2-1
				s1.5-1.6,1.8-2.8h2.1c-0.2,0.8-0.5,1.5-0.9,2.2s-0.9,1.2-1.4,1.7s-1.3,0.9-2,1.2c-0.8,0.3-1.7,0.4-2.7,0.4
				c-1.3,0-2.4-0.2-3.4-0.7c-1-0.4-1.7-1.1-2.4-1.8c-0.6-0.8-1.1-1.7-1.4-2.7s-0.4-2.2-0.4-3.4s0.2-2.3,0.5-3.4
				c0.3-1.1,0.8-2,1.5-2.8s1.4-1.4,2.4-1.9c0.9-0.5,2-0.7,3.2-0.7c2.3,0,4,0.8,5.3,2.3c1.3,1.6,1.9,3.8,1.9,6.8h-12.7V524.9z
				 M717.1,523.3c0-0.8-0.1-1.6-0.3-2.3s-0.6-1.3-1-1.8s-1-0.9-1.6-1.2c-0.7-0.3-1.4-0.5-2.3-0.5s-1.6,0.2-2.2,0.5
				c-0.6,0.3-1.2,0.7-1.7,1.3c-0.5,0.5-0.8,1.1-1.1,1.8s-0.5,1.4-0.5,2.2H717.1z"/>
		</g>
	</g>
	<g>
		<g>
			<path d="M724.8,532.7h-1.9v-16.5h1.9v2.3c0.8-0.8,1.6-1.5,2.4-2c0.8-0.5,1.8-0.8,2.9-0.8c1,0,2,0.2,2.8,0.5s1.6,1,2.2,1.8
				c0.4,0.6,0.6,1.2,0.7,1.8s0.1,1.3,0.1,2v10.8H734v-10.7c0-1.5-0.3-2.6-1-3.3s-1.7-1.1-3.3-1.1c-0.6,0-1.1,0.1-1.6,0.3
				s-0.9,0.4-1.3,0.7c-0.4,0.3-0.7,0.6-1,1s-0.5,0.8-0.6,1.2c-0.2,0.5-0.3,1-0.3,1.5s-0.1,1-0.1,1.6L724.8,532.7L724.8,532.7z"/>
		</g>
	</g>
	<g>
		<g>
			<path d="M753.3,516.2h1.9v14.9c0,1.1-0.1,2.2-0.3,3.2s-0.6,1.9-1.2,2.7c-0.6,0.8-1.4,1.4-2.4,1.8c-1,0.5-2.3,0.7-3.8,0.7
				c-1.2,0-2.2-0.2-3.1-0.5c-0.9-0.3-1.6-0.7-2.1-1.2c-0.6-0.5-1-1-1.3-1.5s-0.4-1.1-0.5-1.6h2c0.1,0.6,0.4,1.1,0.7,1.5
				s0.7,0.7,1.1,0.9s0.9,0.4,1.4,0.5s1.1,0.1,1.7,0.1c1.3,0,2.3-0.2,3.1-0.7c0.8-0.4,1.4-1,1.8-1.7c0.4-0.7,0.7-1.5,0.8-2.4
				s0.2-1.8,0.1-2.8c-0.6,1-1.5,1.8-2.5,2.3c-1.1,0.5-2.2,0.8-3.4,0.8s-2.3-0.2-3.3-0.7c-0.9-0.5-1.7-1.1-2.3-1.9
				c-0.6-0.8-1.1-1.7-1.4-2.8s-0.4-2.2-0.4-3.3c0-1.2,0.1-2.3,0.4-3.4c0.3-1.1,0.7-2,1.3-2.7c0.6-0.8,1.4-1.4,2.3-1.8
				c0.9-0.4,2.1-0.7,3.4-0.7c0.5,0,1.1,0.1,1.6,0.2c0.6,0.1,1.1,0.4,1.6,0.6s1,0.6,1.4,1s0.8,0.9,1.1,1.4h0.1v-2.9H753.3z
				 M753.3,524.5c0-1-0.1-1.9-0.4-2.8c-0.2-0.9-0.6-1.6-1.1-2.2c-0.5-0.6-1-1.1-1.7-1.5s-1.5-0.5-2.4-0.5c-0.8,0-1.5,0.1-2.2,0.4
				c-0.7,0.3-1.3,0.7-1.8,1.3s-0.9,1.2-1.2,2s-0.4,1.7-0.4,2.7s0,2,0.3,2.9c0.2,0.9,0.6,1.7,1,2.4s1.1,1.2,1.8,1.6
				c0.7,0.4,1.6,0.6,2.6,0.6c0.9,0,1.6-0.2,2.3-0.6s1.3-0.9,1.7-1.5s0.8-1.4,1.1-2.2C753.1,526.3,753.3,525.4,753.3,524.5z"/>
		</g>
	</g>
	<g>
		<g>
			<path d="M760.2,512.6v-2.8h2.1v2.8H760.2z M760.2,532.7v-16.5h1.9v16.5H760.2z"/>
		</g>
	</g>
	<g>
		<g>
			<path d="M768.9,532.7H767v-16.5h1.9v2.3c0.8-0.8,1.6-1.5,2.4-2c0.8-0.5,1.8-0.8,2.9-0.8c1,0,2,0.2,2.8,0.5s1.6,1,2.2,1.8
				c0.4,0.6,0.6,1.2,0.7,1.8s0.1,1.3,0.1,2v10.8h-1.9v-10.7c0-1.5-0.3-2.6-1-3.3s-1.7-1.1-3.3-1.1c-0.6,0-1.1,0.1-1.6,0.3
				s-0.9,0.4-1.3,0.7c-0.4,0.3-0.7,0.6-1,1s-0.5,0.8-0.6,1.2c-0.2,0.5-0.3,1-0.3,1.5s-0.1,1-0.1,1.6L768.9,532.7L768.9,532.7z"/>
		</g>
	</g>
	<g>
		<g>
			<path d="M785.9,524.9c0,0.9,0.1,1.7,0.3,2.5s0.6,1.5,1,2.1c0.5,0.6,1,1,1.7,1.4s1.5,0.5,2.4,0.5c1.2,0,2.3-0.3,3.2-1
				s1.5-1.6,1.8-2.8h2.1c-0.2,0.8-0.5,1.5-0.9,2.2s-0.9,1.2-1.4,1.7s-1.3,0.9-2,1.2c-0.8,0.3-1.7,0.4-2.7,0.4
				c-1.3,0-2.4-0.2-3.4-0.7c-1-0.4-1.7-1.1-2.4-1.8c-0.6-0.8-1.1-1.7-1.4-2.7s-0.4-2.2-0.4-3.4s0.2-2.3,0.5-3.4
				c0.3-1.1,0.8-2,1.5-2.8s1.4-1.4,2.4-1.9c0.9-0.5,2-0.7,3.2-0.7c2.3,0,4,0.8,5.3,2.3c1.3,1.6,1.9,3.8,1.9,6.8h-12.7V524.9z
				 M796.6,523.3c0-0.8-0.1-1.6-0.3-2.3s-0.6-1.3-1-1.8s-1-0.9-1.6-1.2c-0.7-0.3-1.4-0.5-2.3-0.5s-1.6,0.2-2.2,0.5
				c-0.6,0.3-1.2,0.7-1.7,1.3c-0.5,0.5-0.8,1.1-1.1,1.8s-0.5,1.4-0.5,2.2H796.6z"/>
		</g>
	</g>
</g>
<g>
	<g>
		<g>
			<g>
				<path class="st1" d="M280.9,394.4c-1.5-4-3.6-7.4-6.2-10.2c-2.6-2.8-5.8-4.9-9.4-6.4s-7.6-2.3-11.9-2.3c-4.3,0-8.2,0.8-11.8,2.3
					s-6.7,3.7-9.4,6.4c-2.6,2.8-4.7,6.2-6.2,10.2s-2.2,8.5-2.2,13.5c0,4.8,0.7,9.2,2.2,13.1s3.5,7.2,6.2,10c2.6,2.8,5.8,4.9,9.4,6.4
					c3.6,1.5,7.5,2.3,11.8,2.3c3.9,0,7.7-0.8,11.3-2.3c3.6-1.5,6.8-3.6,9.5-6.4c2.7-2.7,4.9-6.1,6.5-10s2.4-8.3,2.4-13.1
					C283.1,402.9,282.4,398.4,280.9,394.4z M265.2,416.2c-0.6,2.2-1.6,4-2.7,5.4c-1.2,1.4-2.5,2.3-4.1,2.9s-3.2,0.9-5,0.9
					s-3.4-0.3-5-0.9c-1.5-0.6-2.9-1.6-4-2.9c-1.1-1.4-2-3.2-2.6-5.4c-0.6-2.2-0.9-5-0.9-8.3c0-3.4,0.3-6.3,0.9-8.6
					c0.6-2.3,1.5-4.2,2.6-5.6s2.5-2.4,4-3.1c1.5-0.6,3.2-0.9,5-0.9s3.4,0.3,5,0.9s2.9,1.6,4.1,3.1c1.2,1.4,2.1,3.3,2.7,5.6
					c0.7,2.3,1,5.2,1,8.6C266.2,411.2,265.9,414,265.2,416.2z M260.4,309.7c-1.9,0-3.4,0.4-4.4,1.1s-1.9,1.5-2.7,2.4L158.1,438h16.3
					c1.5,0,2.8-0.3,3.9-0.9c1.1-0.6,2-1.4,2.8-2.4l95.3-125.1h-16V309.7z M208.4,327.3c-0.8-2.1-1.7-4-2.8-5.7
					c-1-1.6-2.2-3.2-3.5-4.5c-2.7-2.8-5.8-4.9-9.4-6.4c-3.6-1.5-7.6-2.3-11.9-2.3c-4.3,0-8.2,0.7-11.8,2.3c-3.6,1.5-6.7,3.7-9.4,6.4
					c-2.6,2.8-4.7,6.2-6.2,10.2s-2.2,8.5-2.2,13.5c0,4.8,0.7,9.2,2.2,13.1c0.6,1.5,1.2,2.9,1.9,4.2c1.2,2.2,2.6,4.1,4.2,5.8
					c2.6,2.8,5.8,4.9,9.4,6.3c3.6,1.5,7.5,2.2,11.8,2.2c3.9,0,7.7-0.7,11.3-2.2s6.8-3.6,9.5-6.3c0.2-0.2,0.5-0.5,0.7-0.8
					c1.2-1.3,2.2-2.6,3.2-4.1c1-1.6,1.9-3.3,2.6-5.1c1.6-3.9,2.4-8.3,2.4-13.1C210.6,335.8,209.9,331.3,208.4,327.3z M192.7,349.1
					c-0.7,2.2-1.6,4-2.8,5.4s-2.5,2.3-4.1,2.9s-3.2,0.9-5,0.9s-3.4-0.3-5-0.9c-1.5-0.6-2.9-1.6-3.9-2.9c-1.1-1.4-2-3.2-2.6-5.4
					c-0.1-0.3-0.2-0.6-0.2-0.9c-0.5-2.1-0.7-4.5-0.7-7.4c0-3.4,0.3-6.3,1-8.6c0.6-2.3,1.5-4.2,2.6-5.6s2.4-2.4,3.9-3.1
					c1.5-0.6,3.2-0.9,5-0.9s3.4,0.3,5,0.9s2.9,1.6,4.1,3.1c1,1.2,1.8,2.8,2.4,4.6c0.1,0.3,0.2,0.6,0.3,1c0.7,2.3,1,5.2,1,8.6
					C193.7,344.1,193.4,346.8,192.7,349.1z"/>
			</g>
		</g>
	</g>
</g>
<g class="st2">
	<g>
		<g>
			<path class="st3" d="M377,436.2h-10.8c-4.6,0-7.6-3.5-7.9-8.1l-5.3-55c-0.1,0-0.2-0.1-0.3-0.1v-0.4l-0.9-9.3l-1.9-20.3l-0.6-6.4
				c0.1,0,0.2-0.1,0.2-0.1l-0.2-2.6l-1.3-13.5c-0.2-2.6,1.5-5,4.1-5.5c5.4-1.1,10.9-1.9,16.3-2.4l1.3,18.6l2,29.4l1.2,16.9
				L377,436.2z"/>
		</g>
	</g>
	<g>
		<g>
			<path d="M377.4,436.6h-11.3c-4.6,0-8-3.4-8.4-8.5l-5.2-54.8l0,0l-0.2-0.1l-0.1-0.7l-3.5-36.3l0.2-0.1l-1.5-15.7
				c-0.3-2.9,1.7-5.4,4.5-6c5.4-1.1,10.9-1.9,16.4-2.4h0.4L377.4,436.6z M353.1,372.6l0.3,0.1l5.3,55.3c0.4,4.6,3.4,7.7,7.5,7.7
				h10.4L368,313c-5.3,0.5-10.6,1.3-15.8,2.3c-2.4,0.5-4,2.6-3.8,5.1l1.6,16.3l-0.2,0.1L353.1,372.6z"/>
		</g>
	</g>
</g>
<g class="st2">
	<g>
		<g>
			<path class="st3" d="M205.5,359c-0.9,1.5-2,2.9-3.2,4.1L205.5,359z"/>
		</g>
	</g>
	<g>
		<g>
			<path d="M202.7,363.4l-0.7-0.6l3.2-4.1l0.7,0.5C204.9,360.7,203.8,362.2,202.7,363.4z"/>
		</g>
	</g>
</g>
<g class="st2">
	<g>
		<g>
			<path class="st3" d="M267.2,309.7L168.8,438h-10.7l95.2-124.9c0.8-0.9,1.7-1.7,2.7-2.4c1-0.7,2.5-1.1,4.4-1.1h6.8V309.7z"/>
		</g>
	</g>
	<g>
		<g>
			<path d="M169,438.5h-11.8l0.5-0.7L253,312.9c0.8-0.9,1.7-1.8,2.8-2.5c1.1-0.8,2.7-1.1,4.6-1.1h7.7L169,438.5z M158.9,437.6h9.7
				l97.7-127.5h-5.9c-1.8,0-3.2,0.3-4.1,1c-1,0.7-1.9,1.5-2.6,2.3L158.9,437.6z"/>
		</g>
	</g>
</g>
<g class="st2">
	<g>
		<g>
			<g>
				<path d="M192.7,310.6c-3.6-1.5-7.6-2.3-11.9-2.3c-4.3,0-8.2,0.7-11.8,2.3c-3.6,1.5-6.7,3.7-9.4,6.4c-2.6,2.8-4.7,6.2-6.2,10.2
					s-2.2,8.5-2.2,13.5c0,4.8,0.7,9.2,2.2,13.1c0.6,1.5,1.2,2.9,1.9,4.2c1.2,2.2,2.6,4.1,4.2,5.8c0.5,0.5,1.1,1.1,1.6,1.5l9.5-12.7
					c-0.6-1.1-1.1-2.3-1.5-3.7c-0.1-0.3-0.2-0.6-0.2-0.9c-0.5-2.1-0.7-4.5-0.7-7.4c0-3.4,0.3-6.3,1-8.6c0.6-2.3,1.5-4.2,2.6-5.6
					s2.4-2.4,3.9-3.1c1.5-0.6,3.2-0.9,5-0.9s3.4,0.3,5,0.9s2.9,1.6,4.1,3.1c0.1,0.1,0.2,0.3,0.3,0.4l9.3-12.3
					C197.5,313,195.2,311.7,192.7,310.6z"/>
			</g>
		</g>
	</g>
</g>
<g class="st2">
	<g>
		<g>
			<g>
				<path d="M265.3,377.8c-3.6-1.5-7.6-2.3-11.9-2.3c-4.3,0-8.2,0.7-11.8,2.3c-3.6,1.5-6.7,3.7-9.4,6.4c-2.6,2.8-4.7,6.2-6.2,10.2
					s-2.2,8.5-2.2,13.5c0,4.8,0.7,9.2,2.2,13.1c0.6,1.5,1.2,2.9,1.9,4.2c1.2,2.2,2.6,4.1,4.2,5.8c0.5,0.5,1.1,1.1,1.6,1.5l9.5-12.7
					c-0.6-1.1-1.1-2.3-1.5-3.7c-0.1-0.3-0.2-0.6-0.2-0.9c-0.5-2.1-0.7-4.5-0.7-7.4c0-3.4,0.3-6.3,1-8.6c0.6-2.3,1.5-4.2,2.6-5.6
					s2.4-2.4,3.9-3.1c1.5-0.6,3.2-0.9,5-0.9s3.4,0.3,5,0.9c1.6,0.6,2.9,1.6,4.1,3.1c0.1,0.1,0.2,0.3,0.3,0.4l9.3-12.3
					C270,380.2,267.7,378.8,265.3,377.8z"/>
			</g>
		</g>
	</g>
</g>
<g>
	<g>
		<g>
			<path class="st1" d="M304.8,378.7v-6.1h9.6V363h6.2v9.6h9.6v6.1h-9.6v9.7h-6.2v-9.7H304.8z"/>
		</g>
	</g>
</g>
<g>
	<g>
		<g>
			<path class="st1" d="M444.8,378.7v-6.1h9.6V363h6.2v9.6h9.6v6.1h-9.6v9.7h-6.2v-9.7H444.8z"/>
		</g>
	</g>
</g>
<g>
	<g>
		<g>
			<path class="st1" d="M628.8,378.7v-6.1h9.6V363h6.2v9.6h9.6v6.1h-9.6v9.7h-6.2v-9.7H628.8z"/>
		</g>
	</g>
</g>
<g>
	<g>
		<g>
			<path class="st4" d="M794.6,435.4c0,0-59.1,17.6-92.2-24.7c-33.1-42.3-23.9-70.8-17.8-98.5l0.5-0.4c28.3-3,57.6-8.8,95.9,28.9
				c38.4,37.7,14.2,94.4,14.2,94.4L794.6,435.4z"/>
		</g>
	</g>
</g>
<g class="st5">
	<g>
		<g>
			<path d="M767.3,438.4c-2.6,0-5.4-0.1-8.2-0.3c-23-1.8-42-11.6-55.1-28.1c-27.1-34.4-23.8-57.8-20.6-80.5c0.5-3.5,1-7.1,1.4-10.7
				l6.8,0.7c-0.4,3.7-0.9,7.3-1.4,10.9c-3.2,22.2-6.1,43.2,19.1,75.3c28.5,36.3,78.6,23.6,79.1,23.5l1.7,6.6
				C789.6,435.9,780.3,438.4,767.3,438.4z"/>
		</g>
	</g>
</g>
<g>
	<g>
		<g>
			<path class="st0" d="M716.9,330.9c8.2-2.6,31.4,11.7,30.9,2.3C747.1,318.2,705.3,313.5,716.9,330.9z"/>
		</g>
	</g>
</g>
<g>
	<g>
		<g>
			<g>
				<g>
					<path d="M560.9,382.2c0.5-0.3,1.1-0.7,1.6-1c-1.3-1.6-2.5-3.4-3.9-5c-6.9,5.6-13.7,11.3-22.4,14c0.8,1.9,1.6,3.9,2.4,5.9
						c14-6.3,30.2-7.3,43.9-14.5c2-1,2.1-4.5,0-5.5c-11-5.4-22.2,1.8-32.6,5.6c1.2,1.5,2.4,3.2,3.7,4.7c8.1-11.7,21.3-17.8,33-25.2
						c2.4-1.5,1.7-6.3-1.6-6c-17.9,2-32.8,19.7-44.7,31.8c-3,3.1,1.3,7,4.6,4.6c13.7-10.9,34.4-10.4,47-22.3c2-1.9,0.5-5.6-2.2-5.5
						c-10.9,0.4-18,10.3-26.9,15.4c1.4,1.4,3,3,4.4,4.4c6.7-11.3,19.8-21.3,30-29.3c-1.5-1.5-3.1-3.1-4.6-4.6
						c-8,6.4-14,14.7-21.8,21.4c-3.2,2.7,1.4,7.2,4.6,4.6c7.7-6.7,13.7-15,21.8-21.4c3.3-2.5-1.3-7-4.6-4.6
						c-10.8,8.5-23.9,18.7-31,30.6c-1.6,2.7,1.6,6,4.4,4.4c7.3-4.3,14.7-14.1,23.7-14.6c-0.7-1.8-1.5-3.7-2.2-5.5
						c-12.3,11.7-33.4,11.5-47,22.3c1.5,1.5,3.1,3.1,4.6,4.6c10.3-10.4,24.7-28.1,40.2-29.8c-0.5-2-1.1-4-1.6-6
						c-12.7,8.1-26.5,14.9-35.3,27.6c-1.5,2.2,1,5.6,3.7,4.7c7.7-2.8,19.1-10.4,27.7-6.3c0-1.8,0-3.7,0-5.5
						c-13.5,7-29.8,8-43.9,14.5c-3.4,1.5-0.9,6.9,2.4,5.9c9.7-3.1,17.4-9.4,25.2-15.7c2.8-2.3-0.8-6.9-3.9-5c-0.5,0.3-1.1,0.7-1.6,1
						C554.2,378.8,557.3,384.4,560.9,382.2L560.9,382.2z"/>
				</g>
			</g>
			<g>
				<g>
					<path class="st0" d="M537.1,396.9c-1.5,0-2.8-1.1-3.4-2.5c-0.6-1.5-0.3-3.5,1.6-4.3c0.1-0.1,0.2-0.1,0.4-0.2l0,0l0.4-0.1
						c0.9-0.4,1.9-0.8,2.8-1.2c0.1-0.5,0.3-1.1,0.8-1.6l0,0l0.3-0.2l0,0c1.4-1.4,3-3.1,4.6-4.7c11-11.3,24.6-25.4,40.4-27.2
						c0.1,0,0.3,0,0.4,0c2-1.7,4.2-3.3,6.1-4.9l1.1-0.9l0,0c1.8-1.2,4.1-0.5,5.3,1c0.9,1.1,1.1,2.8-0.1,4.2l0,0l-0.4,0.3
						c-3.4,2.7-6.4,5.8-9.4,9c0.5-0.1,1-0.1,1.6-0.1c1.4-0.1,2.7,0.8,3.4,2.2c0.6,1.4,0.3,3.1-0.7,4c-2.7,2.6-5.9,4.7-9.3,6.3
						c1,0.6,1.6,1.6,1.7,3c0,1.4-0.7,2.6-1.8,3.3c-7.3,3.8-15.5,5.9-23.3,7.9c-5,1.2-10.1,2.5-15,4.3c-2,1-4.2,1.8-6.3,2.5
						C537.8,396.8,537.4,396.9,537.1,396.9z M536,390.7c-0.1,0-0.2,0.1-0.3,0.1c-1.5,0.7-1.5,2.1-1.1,3.2c0.5,1.3,1.7,2.3,3.3,1.8
						c0.1,0,0.2-0.1,0.3-0.1L536,390.7z M536.9,390.4l2.1,5c1.7-0.7,3.4-1.4,5.2-2c3.3-1.6,6.4-3.6,9.4-5.8
						c-0.6,0.2-1.1,0.4-1.6,0.6c-0.5,0.2-1.1,0.2-1.6,0.1c-1.7,1-3.5,2-5,3.3l0,0l-0.3,0.3l-0.1-0.1c-1.8,1.2-3.9,0.6-5-0.7
						c-0.4-0.5-0.7-1-0.8-1.6C538.3,389.9,537.6,390.2,536.9,390.4z M557.1,386.1c-2.7,2-5.5,4.1-8.4,5.8c3.6-1,7.1-1.9,10.6-2.8
						c7.8-2,16-4.1,23.1-7.8c0.8-0.4,1.3-1.4,1.3-2.4c0-1-0.5-1.9-1.3-2.2c-0.2-0.1-0.3-0.2-0.5-0.2c-0.7,0.3-1.4,0.6-2.1,0.9v5.1
						l-0.6-0.3c-2.3-1.1-4.9-1.3-7.5-1c-1.8,1.5-3.7,3-5.5,4c-1.6,0.9-3.5,0.4-4.4-0.6c-0.1-0.1-0.1-0.1-0.2-0.2
						c-1.3,0.5-2.5,1.1-3.9,1.7C557.5,385.9,557.3,386,557.1,386.1z M539.7,389.3c0.1,0.5,0.3,1,0.7,1.4c0.8,0.9,2.3,1.4,3.8,0.6
						l-2.7-2.7h-0.1C540.8,388.9,540.3,389.1,539.7,389.3z M542.4,388.3l2.5,2.5c1.1-1.1,2.2-2.3,3.5-3.6c-0.1-0.1-0.2-0.2-0.3-0.3
						c-0.1-0.1-0.2-0.2-0.3-0.4C545.9,387.1,544.1,387.7,542.4,388.3z M548.9,387.9c-0.2,0.2-0.4,0.4-0.6,0.6
						c0.3-0.2,0.5-0.3,0.8-0.5C549.1,388,549,387.9,548.9,387.9z M540.3,387.6c-0.2,0.2-0.3,0.4-0.4,0.6c0.3-0.1,0.5-0.2,0.8-0.3
						L540.3,387.6z M540.9,387l0.6,0.6c1.9-0.9,3.9-2,5.6-3.3c0.1-0.5,0.2-0.9,0.5-1.3c0-0.1,0.1-0.1,0.1-0.2
						C545.4,383.9,543.1,385.3,540.9,387z M549.6,387.2c0.2,0.1,0.3,0.2,0.5,0.2c0.9-0.5,1.8-0.9,2.7-1.4c-0.2-0.2-0.4-0.5-0.5-0.7
						c-0.4,0.1-0.9,0.2-1.3,0.3c-0.3,0.3-0.5,0.6-0.8,0.8C550,386.8,549.8,387,549.6,387.2z M548.7,386.4L548.7,386.4
						c0.1,0.2,0.2,0.2,0.2,0.3c0.2-0.2,0.3-0.3,0.5-0.5C549.1,386.3,548.9,386.3,548.7,386.4z M555.3,386c-0.3,0.1-0.6,0.3-0.9,0.4
						C554.6,386.2,554.9,386.1,555.3,386z M547.2,385.3c-0.5,0.3-1,0.7-1.6,1c0.6-0.2,1.1-0.3,1.7-0.5
						C547.3,385.6,547.2,385.4,547.2,385.3z M553.2,385.1c0.1,0.2,0.3,0.3,0.4,0.5c0.2-0.3,0.4-0.5,0.6-0.8
						C553.9,384.9,553.5,385,553.2,385.1z M548,384.7c0,0.3,0.1,0.5,0.2,0.8c0.7-0.2,1.5-0.4,2.2-0.6c0.3-0.3,0.5-0.5,0.8-0.8
						c-0.1-0.2-0.3-0.4-0.4-0.5l-0.4-0.5C549.7,383.6,548.9,384.2,548,384.7z M555.6,384.5c-0.1,0.2-0.2,0.3-0.4,0.5
						c0.9-0.4,1.7-0.7,2.6-1c-0.5,0.1-1,0.3-1.5,0.4C556,384.4,555.8,384.4,555.6,384.5z M562.4,383.7c0.7,0.7,2,1.2,3.4,0.5
						c0.3-0.2,0.6-0.4,0.9-0.6l-1.1-1.1C564.4,382.9,563.4,383.3,562.4,383.7z M552.4,384.1c0.1,0.1,0.1,0.1,0.2,0.2
						c0.8-0.2,1.6-0.4,2.4-0.6c0.5-0.6,1-1.2,1.6-1.8c-0.3-0.4-0.6-0.8-0.7-1.3C554.8,381.8,553.5,383,552.4,384.1z M581.6,356.1
						c-14.1,3.2-26.5,16-36.5,26.4c-0.4,0.5-0.9,0.9-1.3,1.4c1.6-1,3.4-1.9,5.2-2.7c7.2-9.5,17.4-15.7,27.2-21.7
						C578,358.5,579.8,357.4,581.6,356.1z M551.2,382.5l0.4,0.5c0.1,0.1,0.2,0.3,0.3,0.4c1-1.1,2.1-2.2,3.3-3.4
						c-0.5,0.2-1.1,0.5-1.6,0.7C552.7,381.4,552,382,551.2,382.5z M549.6,381.9c-0.4,0.5-0.7,1-1.1,1.5l0,0c0.5-0.4,1-0.7,1.5-1.1
						L549.6,381.9L549.6,381.9z M557.3,382.5c-0.3,0.3-0.5,0.6-0.8,0.9c0.5-0.1,1.1-0.3,1.6-0.4c-0.1-0.1-0.3-0.1-0.4-0.2
						C557.6,382.7,557.4,382.6,557.3,382.5z M566.5,382.2l0.5,0.5c0.2-0.3,0.4-0.6,0.5-0.9C567.2,382,566.8,382.1,566.5,382.2z
						 M568.8,381.5c-0.3,0.4-0.5,0.8-0.7,1.1c0.6-0.4,1.2-0.9,1.8-1.4C569.5,381.3,569.2,381.4,568.8,381.5z M557.9,381.8
						c0.1,0.1,0.2,0.1,0.3,0.2c0.5,0.3,1.4,0.5,2.4-0.2l0,0l0,0c0-0.6,0.1-1.2,0.5-1.7c-0.2-0.3-0.4-0.5-0.6-0.8
						C559.6,380.1,558.7,380.9,557.9,381.8z M562.9,381.4c-0.2,0.1-0.3,0.3-0.5,0.4c0.6-0.2,1.2-0.3,1.9-0.5l-0.6-0.6
						c-0.1,0.1-0.2,0.2-0.3,0.3l-0.3,0.2l0,0L562.9,381.4z M561.7,380.8c-0.1,0.1-0.1,0.3-0.1,0.4c0.1-0.1,0.2-0.1,0.3-0.2
						C561.8,381,561.8,380.9,561.7,380.8z M556.6,379.8c0.1,0.5,0.3,0.9,0.6,1.3c0.9-0.9,1.7-1.8,2.7-2.6c-0.1-0.1-0.2-0.2-0.3-0.3
						c-0.8,0.3-1.6,0.6-2.3,1C557.1,379.4,556.9,379.6,556.6,379.8z M564.3,380.1l1,1c1.2-0.3,2.3-0.7,3.6-1.1
						c0.8-1.2,1.8-2.4,2.7-3.6c-0.6-0.3-1.2-0.8-1.6-1.4c-0.3,0.1-0.7,0.1-1,0.2c-1.4,1.1-2.8,2.2-4.4,3.2
						C564.6,378.9,564.5,379.4,564.3,380.1z M573.8,379.9c1.7,0,3.5,0.3,5.2,1v-3.4c-1.9,0.8-3.9,1.5-5.8,2.1
						c-0.1,0.1-0.2,0.2-0.3,0.3C573.2,379.9,573.5,379.9,573.8,379.9z M562.2,379.9c0.1,0.2,0.3,0.4,0.4,0.6l0.3-0.2
						c0.1-0.1,0.2-0.1,0.2-0.2l-0.6-0.6C562.4,379.6,562.3,379.7,562.2,379.9z M583.1,356.3c-2.1,1.3-4.4,2.7-6.5,4
						c-9.7,5.9-18.8,11.5-25.9,20.2c1.2-0.5,2.4-1,3.7-1.5c0.6-0.5,1.2-0.9,1.7-1.4c0.3-0.5,0.7-0.9,1.3-1.3l0.1-0.1
						c0.5-0.3,1-0.6,1.5-0.9c0.5-0.3,1.1-0.5,1.6-0.5c4-3.7,8.2-7,12.6-9.6c3.2-3.1,6.5-5.9,9.8-8.7l0,0L583.1,356.3z M572.5,376.7
						c-0.8,0.9-1.5,1.8-2.2,2.7c1.1-0.4,2.1-0.8,3.3-1.2c1.3-1.1,2.7-2.2,4.1-3.4c-0.3,0-0.5-0.1-0.8-0.1c-0.4,0.3-0.7,0.7-1.1,1
						C574.7,376.6,573.6,376.9,572.5,376.7z M563.4,379.1l0.2,0.2c0.1-0.1,0.1-0.3,0.1-0.4C563.6,378.9,563.5,379,563.4,379.1z
						 M561.2,378.6c0.1,0.2,0.3,0.4,0.4,0.6c0.5-0.7,0.9-1.5,1.4-2.2C562.4,377.5,561.8,378,561.2,378.6z M563.6,377.7
						c-0.1,0.1-0.2,0.2-0.2,0.4c0.1-0.1,0.2-0.1,0.3-0.2C563.6,377.8,563.6,377.8,563.6,377.7z M558.5,376.8l-0.6,0.5
						c-0.3,0.3-0.7,0.5-1,0.8c0.1,0,0.3-0.1,0.4-0.1C557.7,377.5,558.1,377.1,558.5,376.8z M560.6,377.8
						C560.6,377.9,560.6,377.9,560.6,377.8c0.1,0,0.2,0,0.3-0.1C560.8,377.7,560.7,377.8,560.6,377.8z M564.2,376.9
						c0.1,0.2,0.2,0.3,0.2,0.5c0.8-0.5,1.6-1.1,2.4-1.7c-0.8,0.3-1.5,0.5-2.3,0.8C564.4,376.6,564.3,376.8,564.2,376.9z
						 M578.8,375.2c-0.8,0.6-1.6,1.2-2.4,1.9c1-0.4,1.9-0.9,2.8-1.4l0.5-0.3C579.4,375.3,579.1,375.2,578.8,375.2z M559.8,376.8
						c0.1,0.1,0.1,0.2,0.2,0.2c0.5-0.2,1-0.3,1.5-0.5c0.3-0.1,0.6-0.2,0.9-0.4c-0.4-0.3-0.9-0.5-1.4-0.6
						C560.6,376,560.2,376.4,559.8,376.8z M579.8,375.5v0.8c0.3-0.1,0.7-0.3,1-0.4C580.4,375.7,580.1,375.6,579.8,375.5z
						 M573.2,375.9c0.5,0,1.2-0.1,1.9-0.7c0.2-0.2,0.4-0.3,0.5-0.5c-0.4,0-0.9,0-1.3-0.1C573.9,375,573.6,375.5,573.2,375.9z
						 M561.8,374.9c0.5,0.2,1,0.4,1.4,0.8c0.6-0.5,1.2-0.9,1.7-1.3c1.7-2.2,3.7-4.4,5.7-6.5C567.6,369.9,564.6,372.3,561.8,374.9z
						 M570.9,374.8c0.3,0.4,0.7,0.6,1.2,0.8c0.3-0.3,0.6-0.7,0.9-1C572.4,374.7,571.7,374.8,570.9,374.8z M579.7,374.5
						c0.7,0.2,1.4,0.5,2.2,0.8c2.7-1.3,5.4-2.8,7.7-4.8C586.1,370.6,582.8,372.2,579.7,374.5z M565.7,375c0,0.1-0.1,0.1-0.1,0.2
						c0.5-0.2,1.1-0.3,1.6-0.5c0.6-0.2,1.2-0.4,1.8-0.6c0.2-0.1,0.3-0.2,0.5-0.4c0,0,0,0,0-0.1c-0.1-0.5-0.1-0.9,0-1.4
						C568.2,373.1,566.9,374,565.7,375z M577.7,374c0.3,0.1,0.6,0.1,0.9,0.2c3.3-2.3,6.6-4.3,10.4-4.6l-1.8-4.3
						c-1.2,1.1-2.5,2.1-4,3.1C581.4,370.3,579.6,372.2,577.7,374z M575.1,373.7c0.5,0,0.9,0.1,1.4,0.1c1.3-1.2,2.5-2.4,3.8-3.7
						c-1.1,0.6-2.2,1.2-3.5,1.7C576.2,372.5,575.6,373.1,575.1,373.7z M574.8,372.8c-0.8,0.3-1.6,0.7-2.4,1c0.5,0,1.1-0.1,1.6-0.1
						C574.2,373.4,574.5,373.1,574.8,372.8z M581.6,366.1c-3.7,1.7-6.9,4.4-10.2,7c1.6-0.6,3.3-1.3,4.9-2
						C578.1,369.5,579.8,367.7,581.6,366.1z M571.6,370.8c-0.2,0.1-0.3,0.3-0.5,0.4c-0.7,0.6-0.9,1.2-0.9,1.8
						c0.2-0.2,0.4-0.3,0.6-0.5c4.1-3.3,8.1-6.5,12.9-8.2c3.9-3.4,7.8-6.4,11.5-9.3l1.2-1l-3.9-3.9c-1.9,1.5-3.8,3.3-5.6,5
						c0.6,0.4,1,0.9,1.3,1.7c0.5,1.5,0.2,3.7-1.4,4.7c-2.4,1.5-4.9,3.1-7.3,4.5C576.9,367.5,574.2,369.2,571.6,370.8z M573.9,365.9
						c-2.1,2.1-4.3,4.3-6.1,6.5c1.1-0.7,2.1-1.5,3.3-2.2c2.1-1.8,4.1-3.9,6-5.9C576,364.8,574.9,365.3,573.9,365.9z M587.6,364.3
						l2.4,5.8c0.5-0.4,1-0.8,1.4-1.3c0.8-0.7,1-1.9,0.5-3.1c-0.4-0.8-1.2-1.7-2.4-1.7C589,364.1,588.4,364.2,587.6,364.3z
						 M584.2,365.1c-1.8,1.5-3.6,3.2-5.3,4.8c1.3-0.7,2.5-1.4,3.8-2.2c0.8-0.8,1.5-1.6,2.2-2.4c0.2-0.2,0.4-0.4,0.5-0.6
						C585,364.8,584.6,365,584.2,365.1z M579.1,363.5c-1.3,1.4-2.7,2.8-4.2,4.3c1.4-0.8,2.7-1.6,4.2-2.5c1.7-1,3.5-2,5.1-3.1
						C582.5,362.3,580.7,362.9,579.1,363.5z M583.4,357.5c-2.4,2-4.9,4.1-7.2,6.3c0.8-0.4,1.6-0.7,2.3-1c0.6-0.6,1.2-1.3,1.8-1.9
						C581.4,359.7,582.5,358.6,583.4,357.5C583.5,357.5,583.5,357.5,583.4,357.5z M588.7,361.3c-0.9,0.8-1.9,1.5-2.8,2.3
						c0.2-0.1,0.5-0.1,0.7-0.2C587.2,362.9,587.9,362.1,588.7,361.3z M583.7,358.5c-0.9,0.9-1.8,1.9-2.6,2.8
						c-0.2,0.2-0.4,0.5-0.7,0.7c1.3-0.4,2.7-0.7,4.1-0.9C584.2,360.3,584,359.4,583.7,358.5z M584.4,357.8c0.3,1.2,0.6,2.4,1,3.6
						c0.3-0.2,0.6-0.4,1-0.6c1.2-0.8,1.5-2.4,1.1-3.7c-0.1-0.3-0.4-1-1.1-1.3C585.7,356.4,585.1,357.2,584.4,357.8z M583.9,355.7
						v0.1c0.1-0.1,0.1-0.1,0.2-0.2C584.1,355.7,584,355.7,583.9,355.7z M593.2,349.6l3.9,3.9c1-1,0.7-2.1,0.1-3
						C596.3,349.4,594.7,348.8,593.2,349.6z"/>
				</g>
			</g>
		</g>
	</g>
</g>
<g>
	<g>
		<g>
			<g>
				<g>
					<path class="st6" d="M545.8,346.2c-2.5,3.7-5.1,6.9-8.1,10.2c-1.2,1.3-2.4,2.5-3.6,3.9c3.9-0.4,4.6-0.7,2-0.9
						c-6.4-1-9.8-4.1-14.2-8.9c-14.1-15.1-36.7,7.6-22.7,22.7c11.1,11.8,22.4,16.8,38.3,18.4c15.7,1.7,28.5-18.4,36-29.2
						C585.2,345.2,557.4,329.3,545.8,346.2L545.8,346.2z"/>
				</g>
			</g>
			<g>
				<g>
					<path class="st6" d="M539.3,392.1c-0.6,0-1.2,0-1.9-0.1c-16.7-1.8-27.9-7.2-38.6-18.6c-7.4-7.9-5-17.9,1.2-23.7
						c5.6-5.2,14.9-7.3,22.1,0.4c4.1,4.3,7.1,7.3,12.7,8.5l2.4-2.6c2.8-3,5.4-6.2,8-10.2c3.6-5.2,9-7.8,15.2-7.3
						c6.4,0.5,12.3,4.4,14.9,9.7c2.1,4.6,1.5,9.6-1.6,14.2l-1.2,1.8C565.4,374.9,553.5,392.1,539.3,392.1z M510.9,345.9
						c-3.4,0-6.9,1.3-10.3,4.5c-5.9,5.5-8.1,15-1.1,22.5c10.6,11.3,21.6,16.6,38.1,18.3c14.6,1.5,27-16.5,34.3-27.3l1.2-1.8
						c3.1-4.4,3.6-9.2,1.6-13.3c-2.3-5-8-8.8-14.1-9.3c-5.8-0.5-11,1.9-14.4,6.9l0,0c-2.7,4-5.3,7.2-8.1,10.3l-2,2.2
						c0.1,0,0.1,0,0.2,0c1.3,0.1,1.8,0.2,1.9,0.7c0,0.5-0.2,0.7-4,1l-1.1,0.1l1.3-1.3c-5.5-1.3-8.7-4.4-12.7-8.7
						C518.7,347.8,515,345.9,510.9,345.9z M535.2,359.6L535.2,359.6L535.2,359.6L535.2,359.6z"/>
				</g>
			</g>
		</g>
	</g>
</g>
<g>
	<g>
		<g>
			<g>
				<g>
					<path class="st6" d="M553.5,374.1c-5.4,3-10.7,6.2-16,9.4c-6.8,4.1-11,14.9-5.7,21.9c0.7,0.9,1.2,1.8,1.7,2.8
						c-3.2-6.2,1.7,4.1,1.1,2.7c1.7,4,4.8,7.2,8.3,9.6c6.3,4.1,13.8,4.3,21,5.9c8.5,1.9,17.3-2.4,19.7-11.2
						c2.2-8.1-2.6-17.8-11.2-19.7c-2.5-0.6-5-1-7.5-1.4c-1-0.2-2-0.3-3.1-0.5c-0.6-0.1-5.3-1.7-1.7-0.1c1.2,0.8,2.2,1.7,3,3.1
						c-1.8-2.7,1.4,3.6,0.1,0.4c-1-2.6-2-5.3-3.8-7.5c-1.9,7.3-3.9,14.7-5.7,21.9c5.3-3.2,10.6-6.4,16-9.4
						c7.6-4.2,10.1-14.6,5.7-21.9C570.9,372.2,561.2,370,553.5,374.1L553.5,374.1z"/>
				</g>
			</g>
			<g>
				<g>
					<path class="st6" d="M568.1,427.3c-1.3,0-2.7-0.2-4.2-0.5c-1.9-0.4-3.9-0.8-5.8-1.1c-5.2-0.9-10.7-1.8-15.4-4.8
						c-3.9-2.4-6.8-5.9-8.5-9.7l0,0v-0.1c-0.2-0.3-0.5-0.9-1-2c-0.5-1.1-0.8-1.8-1-2.3c-0.2-0.4-0.5-0.8-0.8-1.1
						c-2.2-3-3-6.7-2.1-10.8c1-4.9,4.1-9.4,8-11.7c1.5-0.9,3.2-1.8,4.7-2.7c3.7-2.2,7.4-4.5,11.3-6.6l0,0c8.1-4.4,18-1.8,22.5,5.9
						c2.2,3.8,2.7,8.4,1.5,12.9c-0.3,1.3-0.8,2.4-1.4,3.6c2.5,1.3,4.8,3.4,6.3,6c2.4,4,3.2,8.8,1.9,13
						C582.1,422.6,575.6,427.3,568.1,427.3z M535.1,410.8c1.5,3.7,4.5,6.9,8.2,9.4c4.6,3,9.9,3.9,15,4.7c1.9,0.3,3.9,0.6,5.8,1.1
						c8.7,1.9,16.9-2.7,19.1-10.9c1.1-4.1,0.4-8.5-1.8-12.4c-1.5-2.5-3.6-4.5-6-5.7c-1.4,2.2-3.3,4.1-5.6,5.3
						c-3.8,2-7.4,4.3-11.1,6.4c-1.6,1-3.3,1.9-4.9,3l-0.9,0.5l0.3-1c1.2-4.8,2.5-9.7,3.8-14.5l2.1-8.3l0.5,0.7
						c1,1.3,1.7,2.6,2.3,4.1c0.9,0.2,1.9,0.4,2.8,0.5c2.4,0.4,5.1,0.8,7.6,1.4c0.8,0.2,1.6,0.4,2.4,0.8c0.6-1,1-2.2,1.4-3.5
						c1.1-4.2,0.6-8.7-1.4-12.2c-4.3-7.3-13.6-9.8-21.4-5.6l0,0c-3.9,2-7.6,4.4-11.3,6.5c-1.5,0.9-3.1,1.8-4.7,2.7
						c-3.8,2.2-6.7,6.6-7.6,11.2c-0.7,3.8,0,7.4,2,10.1c0.1,0.2,0.3,0.4,0.4,0.6c0.2,0,0.5,0.5,1.3,2.2l-0.1,0.1
						C534.3,409.2,534.9,410.4,535.1,410.8L535.1,410.8z M558.8,393.3l-0.9,3.6c-1.2,4.5-2.3,9-3.6,13.4c1.3-0.8,2.6-1.5,4-2.3
						c3.6-2.1,7.3-4.4,11.1-6.4c2.1-1.1,3.9-2.8,5.2-4.9c-0.7-0.3-1.4-0.5-2.2-0.7c-2.5-0.6-5.1-1-7.5-1.4c-0.8-0.1-1.5-0.2-2.3-0.4
						c0.3,0.6,0.5,1.3,0.8,2c0,0,0,0.1,0.1,0.1l0,0l0.2,0.4c0.3,0.9,0.5,1.3,0.1,1.5c-0.4,0.2-0.6-0.2-1-0.9
						c-0.4-0.8-0.6-1.2-0.6-1.5c-0.6-0.8-1.3-1.4-2.2-1.9C559.4,393.6,559.1,393.4,558.8,393.3z M561.5,393.8l0.1,0.1v-0.1
						C561.5,393.8,561.5,393.8,561.5,393.8z M559.1,392.3c0.3,0.1,0.9,0.2,1.7,0.5c0.1,0,0.1,0,0.2,0.1c-0.4-0.9-0.9-1.7-1.4-2.5
						L559.1,392.3z"/>
				</g>
			</g>
		</g>
	</g>
</g>
<g>
	<g>
		<g>
			<g>
				<g>
					<path class="st6" d="M585.6,358.2c-2.1-3.9,0.9,3-0.4-0.6c-0.5-1.3-0.9-2.6-1.4-4c-1.7-4.6-3.8-7.9-7.1-11.7
						c-2.5-2.8-6.1-5-9.6-6.5c2.4,1-9.2-3.9-3.4-1.3c-0.7-0.3-1.4-0.6-2-1c1.1,0.7,1.9,1.6,2.4,2.7c-5.2-7-13.7-10.6-21.9-5.7
						c-6.9,4.1-11,14.9-5.7,21.9c3,3.9,5.7,6.9,10.1,9.3c1.8,1,4.2,1.8,6,2.5c1.6,0.7,1.5,0.6-0.5-0.2c0.7,0.3,1.4,0.7,2.1,1.1
						c-3.3-1.8,1.5,1.9-1.1-1.4c0.4,0.6,0.7,1.2,1,1.8c-0.9-2.2-1.1-2.5-0.5-0.9c1.2,3.6,2.5,7,4.4,10.4c4.2,7.6,14.6,10.1,21.9,5.7
						C587.5,375.6,589.8,365.8,585.6,358.2L585.6,358.2z"/>
				</g>
			</g>
			<g>
				<g>
					<path class="st6" d="M571.9,382.7c-1.5,0-3.2-0.2-4.7-0.6c-4.3-1.2-7.6-3.9-9.7-7.4c-1.7-3.1-3-6.4-4.1-9.6
						c-0.3-0.1-0.5-0.3-0.6-0.4c-0.2-0.2-0.3-0.3-0.3-0.4c-0.1,0-0.2-0.1-0.2-0.1c-0.4-0.2-0.8-0.3-1.2-0.5
						c-1.5-0.6-3.3-1.3-4.8-2.1c-4.4-2.3-7.2-5.5-10.2-9.4c-2.2-3-3-6.8-2.1-10.9c1-4.9,4.1-9.4,8-11.7c6.7-4,14.2-2.6,20,3.2
						c0.4,0.2,0.9,0.5,1.3,0.7c0.2,0.1,0.4,0.2,0.7,0.3c1.1,0.5,2.5,1,3.2,1.3l0,0c2.7,1.2,6.7,3.4,9.8,6.6c3.3,3.7,5.4,7,7.2,11.8
						c0.3,0.7,0.5,1.4,0.7,2.1c0.2,0.5,0.3,1,0.5,1.5c0.1,0.2,0.3,0.5,0.5,0.9l0,0c4.4,8.1,1.8,18-5.9,22.5
						C577.7,381.9,574.8,382.7,571.9,382.7z M554.4,364.9c1.1,3.1,2.3,6.3,4,9.3c1.8,3.5,5.1,5.9,9.2,7c4.2,1.1,8.7,0.6,12.2-1.4
						c7.1-4.2,9.7-13.1,5.9-20.7c-0.3,0.1-0.5-0.3-0.7-0.8c-0.4-0.8-0.5-1.3-0.4-1.5c-0.1-0.3-0.2-0.6-0.3-0.9
						c-0.2-0.7-0.5-1.4-0.7-2.1c-1.7-4.7-3.8-7.9-7-11.5c-2.7-3.1-6.4-5.1-9.2-6.3l0,0l0,0c-0.1,0-0.2-0.1-0.3-0.1l0,0l0,0
						c-0.5-0.2-1.4-0.6-3-1.2c0.2,0.3,0.4,0.6,0.6,1l-0.7,0.4c-0.7-0.9-1.4-1.8-2.3-2.6c0,0,0,0-0.1,0l0,0c-4.6-4.5-11.6-7.3-19-3
						c-3.8,2.2-6.6,6.4-7.6,11.1c-0.8,3.9-0.1,7.4,1.9,10.2c3,4,5.7,6.9,9.9,9.2c1.4,0.7,3.2,1.4,4.7,2c0.3,0.1,0.5,0.2,0.8,0.3l0,0
						c0.2,0.1,0.4,0.2,0.5,0.2l0.1-0.1c-0.1-0.4-0.1-0.5,0.2-0.7c0.4-0.1,0.4-0.2,1.1,1.5l0.1,0.1l-0.1,0.1c0.1,0.1,0.1,0.3,0.2,0.5
						L554.4,364.9z"/>
				</g>
			</g>
		</g>
	</g>
</g>
<g>
	<g>
		<g>
			<g>
				<g>
					<path class="st6" d="M599.4,350.9c1.9-10.7,2.4-22.5-6.8-30.2c-6.7-5.6-16.1-6.6-22.7,0c-5.8,5.8-6.7,17.1,0,22.7
						c2.7,2.2-1.5-3.1,0-0.2c-0.3-0.7-0.6-1.4-1-2.1c-0.2-2.7-0.3-3.3-0.2-1.4c0,1-0.4,4.5,0.2-0.3c-0.1,1-0.3,2-0.5,3.1
						c-1.6,8.5,2.2,17.2,11.2,19.7C587.6,364.4,597.8,359.6,599.4,350.9L599.4,350.9z"/>
				</g>
			</g>
			<g>
				<g>
					<path class="st6" d="M583.7,363.1c-1.4,0-2.7-0.2-4.1-0.5c-8.5-2.3-13.2-10.7-11.5-20.3v-0.2c-1.9-2.3-3.1-5.4-3.3-8.8
						c-0.2-4.8,1.6-9.8,4.8-12.9c6.2-6.2,15.8-6.2,23.2,0c9.7,8,8.8,20.6,6.9,30.6l0,0c-0.7,3.8-3.1,7-6.6,9.4
						C590.4,362.1,586.9,363.1,583.7,363.1z M568.9,343c-1.4,8.9,3.1,16.5,11,18.7c4.1,1.1,9.1,0.3,12.9-2.1
						c3.4-2.1,5.6-5.2,6.2-8.8l0,0c1.8-9.8,2.6-22-6.6-29.8c-7.1-5.9-16.2-5.9-22.1,0c-3.1,3.1-4.8,7.7-4.6,12.3
						c0.1,3,1,5.6,2.5,7.6c0-0.5,0.1-1.1,0.1-1.4c-0.1-1.2-0.1-1.4,0.4-1.5c0.4,0,0.4,0,0.6,1.2h0.2l0,0l0,0c0,0.3-0.1,0.5-0.1,0.7
						c0,0.2,0,0.5,0.1,0.8l0.5,1c0.2,0.1,0.4,0.3,0.6,0.5c1.1,1.3,0.8,1.6,0.7,1.8c-0.4,0.4-0.9-0.1-1.5-0.5
						C569.4,343.5,569.1,343.3,568.9,343z"/>
				</g>
			</g>
		</g>
	</g>
</g>
<g>
	<g>
		<g>
			<g>
				<g>
					<path class="st6" d="M568.8,362.4c11.5,1.1,22.3-2.3,30.1-11.2c5.7-6.5,6.5-16.2,0-22.7c-5.9-5.9-16.9-6.5-22.7,0
						c-1,1.1-2,2.1-3.2,3.2c1.9-1.4,2.2-1.7,0.9-0.8c-2.8,1.7,3.7-1.2,0.5-0.2c-1.6,0.4-1.1,0.3,1.6-0.1c-0.6,0.1-1.2,0.1-1.9,0.1
						c-1.8,0.1-3.6-0.1-5.4-0.3c-8.8-0.9-16,7.9-16,16C552.8,355.7,560.2,361.5,568.8,362.4L568.8,362.4z"/>
				</g>
			</g>
			<g>
				<g>
					<path class="st6" d="M573.1,363.1c-1.4,0-2.8-0.1-4.3-0.2l0,0c-8.1-0.8-16.4-6.2-16.4-16.5c0-4.6,2.2-9.4,5.9-12.7
						c3.2-2.8,6.9-4.2,10.6-3.8c1.7,0.2,3.6,0.4,5.2,0.3c0.6-0.6,1.2-1.2,1.8-1.9c2.6-3,6.4-4.7,10.7-4.8c4.7-0.1,9.5,1.6,12.6,4.8
						c6.3,6.3,6.3,16.1,0,23.3C592.6,359.1,583.5,363.1,573.1,363.1z M567.7,330.8c-3.2,0-6.2,1.2-8.9,3.7c-3.5,3.2-5.6,7.7-5.6,12
						c0,9.7,7.8,14.8,15.6,15.6l0,0c11.9,1.2,22.4-2.7,29.7-11c6-6.8,6-16.1,0-22.1c-3-3-7.4-4.7-11.9-4.6
						c-4.1,0.1-7.6,1.7-10.1,4.5c-0.3,0.4-0.7,0.8-1,1.1c0.1,0,0.1,0.1,0.2,0.1c0.1,0,0.2,0,0.3,0l0.1,0.9c-0.4,0.1-0.7,0.1-1,0.2
						c-0.2,0.1-0.4,0.2-0.7,0.3c-0.2,0.1-0.4,0.2-0.6,0.2c-0.1,0.1-0.3,0.2-0.5,0.4l-0.2-0.2c-0.1,0-0.2-0.1-0.3-0.2
						c-0.1-0.2-0.1-0.3,0-0.5c-1.3,0-2.7-0.2-4.1-0.3C568.5,330.8,568.1,330.8,567.7,330.8z"/>
				</g>
			</g>
		</g>
	</g>
</g>
<g>
	<g>
		<g>
			<g>
				<g>
					<path class="st6" d="M580.7,396.1c2-3.2,3.5-6.7,5.5-9.9c-2.1,3.4,1-1.2,1.5-1.8c1.4-1.6,2.8-3.4,4.2-5.1
						c-9-5.2-17.8-10.4-26.8-15.6c0.3-0.6,0.6-1.2,0.9-1.9c-3.8,7.8-2.2,17.3,5.7,21.9c7.1,4.2,18.1,2.1,21.9-5.7
						c0.9-1.8,1.8-3.7,2.2-5.7c1.3-7.1-0.8-14.2-7.3-18.1c-5.7-3.4-15.1-3.1-19.4,2.5c-3.3,4.2-6.8,8-10,12.3
						c-2.5,3.4-4,7.4-6.2,10.9c-4.8,7.3-1.5,17.7,5.7,21.9C566.6,406.5,575.9,403.5,580.7,396.1L580.7,396.1z"/>
				</g>
			</g>
			<g>
				<g>
					<path class="st6" d="M566.8,404.5c-2.7,0-5.6-0.7-8.1-2.2c-3.8-2.2-6.7-6.2-7.7-10.8c-1-4.3-0.3-8.4,1.8-11.8
						c1-1.5,1.8-3.3,2.6-4.9c1-2,2.1-4.2,3.6-6.1c1.9-2.5,4-5.1,6-7.4c1.3-1.6,2.6-3.3,4-4.9c4.6-5.8,14.1-6,19.9-2.6
						c6.3,3.7,9.1,10.6,7.5,18.5c-0.4,1.9-1.2,3.7-2,5.3l-0.3,0.5c-1.2,2.4-3.2,4.5-5.6,5.9c-0.2,0.2-0.3,0.4-0.5,0.6
						c-0.2,0.2-0.6,0.8-1,1.4c-0.6,0.9-1,1.3-1.2,1.6c-0.7,1.2-1.3,2.4-1.9,3.6c-0.8,1.7-1.7,3.5-2.8,5.1l0,0
						C577.7,401.6,572.3,404.5,566.8,404.5z M565.7,361.8C565.7,361.9,565.7,361.9,565.7,361.8c-2,2.4-4.1,4.9-6,7.4
						c-1.3,1.8-2.4,4-3.5,6c-0.8,1.6-1.7,3.4-2.7,4.9c-2,3.2-2.6,7.1-1.7,11.1c1,4.3,3.8,8,7.3,10.2c7.2,4.3,16.5,1.8,21.3-5.6
						c1-1.6,1.9-3.4,2.7-5c0.6-1.2,1.2-2.4,1.9-3.7c0.1-0.2,0.3-0.6,0.7-1.2l0,0l0.1,0.1c0.1-0.2,0.2-0.3,0.4-0.5
						c0.1-0.2,0.3-0.4,0.4-0.6c-0.5,0.2-1,0.4-1.5,0.5c-4.6,1.4-9.7,0.9-13.5-1.4c-7-4.1-9.7-12.1-6.9-20.2l-0.2-0.1l0.2-0.4
						C565,363.1,565.4,362.4,565.7,361.8z M565.5,364.6c-2.5,7.5,0,15.1,6.6,18.9c3.7,2.1,8.4,2.6,12.9,1.3c1.1-0.3,2.1-0.8,3.1-1.3
						c1.1-1.3,2.1-2.6,3.3-4l-7.1-4.2C578,371.8,571.8,368.1,565.5,364.6z M565.8,363.7c6.3,3.7,12.5,7.3,18.8,10.9l8,4.7l-0.3,0.4
						c-0.4,0.5-0.7,0.9-1.1,1.4c0.9-0.9,1.6-2,2.2-3.2l0.3-0.5c0.8-1.6,1.6-3.4,1.9-5.1c1.4-7.5-1.2-14.1-7.1-17.6
						c-5.5-3.3-14.6-3.1-18.8,2.4c-1.2,1.6-2.5,3.2-3.9,4.7l0.7,0.4C566.3,362.6,566,363.2,565.8,363.7z"/>
				</g>
			</g>
		</g>
	</g>
</g>
<g>
	<g>
		<g>
			<g>
				<path class="st7" d="M504.2,425c-23.4-18.6-25.1-53.9-11.8-79.6c12.1,8.5,17.5,21,15.4,35.6c13.5-6.2,23.9-4,37.5-1.7"/>
			</g>
		</g>
		<g>
			<g>
				<path class="st7" d="M503.6,425.8c-24.9-19.8-24.8-56.5-12-80.9l0.6-1.1l1,0.7c12,8.4,17.5,20.5,16.1,34.7
					c12.3-5.1,22.1-3.5,34.3-1.3l1.9,0.3l-0.3,2.1l-2-0.3c-12.4-2.1-22.3-3.8-34.8,1.9l-1.7,0.8l0.3-1.9
					c1.9-13.8-2.8-25.5-13.9-33.8c-11.8,23.6-11.6,58.2,12,77.1L503.6,425.8z"/>
			</g>
		</g>
	</g>
	<g>
		<g>
			<g>
				<path class="st7" d="M504.2,425c21.1,21.4,56.3,19.3,80.3,3.4c-9.8-11.1-22.7-15.2-37-11.6c4.7-14,1.4-24.2-2.2-37.4"/>
			</g>
		</g>
		<g>
			<g>
				<path class="st7" d="M543.8,441.7c-14.7,0-29.2-4.7-40.4-16l1.5-1.5c15.9,16.2,48.5,22.8,78,3.9c-9.5-10.2-21.6-13.7-35.1-10.3
					l-1.9,0.5l0.6-1.8c4.4-13,1.6-22.7-1.7-34.8l-0.5-1.9l2-0.6l0.5,1.9c3.4,11.9,6,21.5,2.2,34.3c14-3,26.6,1.3,36.2,12.3l0.8,0.9
					l-1,0.7C573.6,436.9,558.6,441.7,543.8,441.7z"/>
			</g>
		</g>
	</g>
	<g>
		<g>
			<g>
				<path class="st7" d="M499.5,350.4c10.2-14.5,24.2-25.5,41.2-30.5c5.4,18.3,2.4,40.1-3.6,58.1"/>
			</g>
		</g>
		<g>
			<g>
				<path class="st7" d="M538.3,378.4l-2.1-0.7c6.7-20.3,8.1-40.7,3.9-56.3c-15.6,4.9-29.2,15.2-39.5,29.7l-1.9-1.3
					c10.8-15.4,25.2-26.1,41.8-30.9l1.1-0.3l0.3,1.1C544.6,329.2,547.8,349.4,538.3,378.4z"/>
			</g>
		</g>
	</g>
	<g>
		<g>
			<g>
				<path class="st7" d="M579.6,422.5c13.3-11.6,22.8-26.8,26-44.2c-18.7-3.5-40.1,1.8-57.4,9.7"/>
			</g>
		</g>
		<g>
			<g>
				<path class="st7" d="M580.4,423.4l-1.5-1.7c13.4-11.7,22.2-26.4,25.4-42.3c-16-2.5-36.1,0.9-55.6,9.8l-0.9-2.1
					c27.8-12.6,48.3-11.5,58.1-9.8l1.1,0.2l-0.2,1.1C603.6,395.5,594.6,411,580.4,423.4z"/>
			</g>
		</g>
	</g>
	<g>
		<g>
			<g>
				<path class="st7" d="M543.3,330.2c7-9.8,17.1-18.6,28.4-22.3c3.2,12,2.7,20.3-1.5,32.4"/>
			</g>
		</g>
		<g>
			<g>
				<path class="st7" d="M570.8,340.5l-1.4-0.5c4.2-11.7,4.7-19.6,1.7-31.1c-10,3.5-19.8,11.3-27.3,21.7l-1.2-0.9
					c7.7-10.9,18.2-19.1,28.8-22.5l0.7-0.2l0.2,0.8C575.5,319.8,575.1,328.3,570.8,340.5z"/>
			</g>
		</g>
	</g>
	<g>
		<g>
			<g>
				<path class="st7" d="M594.9,376.6c9-7.9,16.5-19.1,18.9-30.7c-12.3-1.9-20.6-0.6-32.1,5"/>
			</g>
		</g>
		<g>
			<g>
				<path class="st7" d="M595.4,377.2l-1-1.1c9.4-8.3,16.1-19,18.5-29.5c-11.7-1.7-19.5-0.4-30.8,5l-0.6-1.3
					c11.7-5.6,20.2-6.9,32.5-5l0.8,0.1l-0.2,0.8C612.3,357.2,605.2,368.4,595.4,377.2z"/>
			</g>
		</g>
	</g>
	<g>
		<g>
			<g>
				<path class="st7" d="M573.3,378.8c6.5-10.1,9.7-28.7,9-40.5c-12.3,1.4-29.5,4.9-39.2,13.2"/>
			</g>
		</g>
		<g>
			<g>
				<path class="st7" d="M573.9,379.2l-1.2-0.8c6.3-9.7,9.4-27.3,8.9-39.3c-12.4,1.5-28.8,5-38,13l-1-1.1c9.7-8.4,26.9-12,39.6-13.4
					l0.8-0.1v0.8C583.7,350.4,580.5,369.2,573.9,379.2z"/>
			</g>
		</g>
	</g>
	<g>
		<g>
			<g>
				<path class="st7" d="M602.5,345.1c6.5-10.1,7.6-25.1,6.9-36.9c-12.3,1.4-26.2,2.1-35.8,10.6"/>
			</g>
		</g>
		<g>
			<g>
				<path class="st7" d="M603.1,345.5l-1.2-0.8c6.9-10.7,7.3-26.7,6.8-35.7c-0.9,0.1-1.8,0.2-2.7,0.3c-11.4,1.2-23.3,2.5-31.9,10.1
					l-1-1.1c9-7.7,21-9.1,32.7-10.4c1.2-0.1,2.3-0.3,3.6-0.4l0.8-0.1v0.8C610.6,317.3,610.5,334.1,603.1,345.5z"/>
			</g>
		</g>
	</g>
</g>
<path class="st0" d="M343.6,339.4l-1-23.7c0,0,61.3-10.7,73.8,0c-0.1,16.9-0.6,26.9-0.6,26.9L343.6,339.4z"/>
<g>
	<g>
		<g>
			<g>
				<path class="st0" d="M-357.9,214.5c-1-2.7-2.5-5.1-4.3-7c-1.8-1.9-4-3.4-6.5-4.4c-2.5-1-5.2-1.6-8.2-1.6c-3,0-5.6,0.5-8.1,1.6
					c-2.5,1-4.6,2.5-6.5,4.4c-1.8,1.9-3.2,4.3-4.3,7c-1,2.7-1.5,5.8-1.5,9.3c0,3.3,0.5,6.3,1.5,9c1,2.7,2.4,4.9,4.3,6.9
					c1.8,1.9,4,3.4,6.5,4.4c2.5,1,5.2,1.6,8.1,1.6c2.7,0,5.3-0.5,7.8-1.6c2.5-1,4.7-2.5,6.5-4.4c1.9-1.9,3.4-4.2,4.5-6.9
					c1.1-2.7,1.6-5.7,1.6-9C-356.4,220.3-356.9,217.2-357.9,214.5z M-368.7,229.5c-0.4,1.5-1.1,2.7-1.9,3.7c-0.8,1-1.7,1.6-2.8,2
					c-1.1,0.4-2.2,0.6-3.4,0.6s-2.3-0.2-3.4-0.6c-1-0.4-2-1.1-2.7-2c-0.8-1-1.4-2.2-1.8-3.7c-0.4-1.5-0.6-3.4-0.6-5.7
					c0-2.3,0.2-4.3,0.6-5.9c0.4-1.6,1-2.9,1.8-3.8s1.7-1.6,2.7-2.1c1-0.4,2.2-0.6,3.4-0.6s2.3,0.2,3.4,0.6c1.1,0.4,2,1.1,2.8,2.1
					c0.8,1,1.4,2.3,1.9,3.8c0.5,1.6,0.7,3.6,0.7,5.9C-368,226-368.2,228-368.7,229.5z M-372,156.3c-1.3,0-2.3,0.3-3,0.8
					s-1.3,1-1.9,1.6l-65.4,85.7h11.2c1,0,1.9-0.2,2.7-0.6c0.8-0.4,1.4-1,1.9-1.6l65.5-85.9L-372,156.3L-372,156.3z M-407.7,168.4
					c-0.5-1.4-1.2-2.7-1.9-3.9c-0.7-1.1-1.5-2.2-2.4-3.1c-1.9-1.9-4-3.4-6.5-4.4c-2.5-1-5.2-1.6-8.2-1.6c-3,0-5.6,0.5-8.1,1.6
					c-2.5,1-4.6,2.5-6.5,4.4c-1.8,1.9-3.2,4.3-4.3,7c-1,2.7-1.5,5.8-1.5,9.3c0,3.3,0.5,6.3,1.5,9c0.4,1,0.8,2,1.3,2.9
					c0.8,1.5,1.8,2.8,2.9,4c1.8,1.9,4,3.4,6.5,4.3c2.5,1,5.2,1.5,8.1,1.5c2.7,0,5.3-0.5,7.8-1.5c2.5-1,4.7-2.5,6.5-4.3
					c0.1-0.1,0.3-0.3,0.5-0.5c0.8-0.9,1.5-1.8,2.2-2.8c0.7-1.1,1.3-2.3,1.8-3.5c1.1-2.7,1.6-5.7,1.6-9
					C-406.2,174.2-406.7,171.2-407.7,168.4z M-418.5,183.4c-0.5,1.5-1.1,2.7-1.9,3.7s-1.7,1.6-2.8,2s-2.2,0.6-3.4,0.6
					c-1.2,0-2.3-0.2-3.4-0.6c-1-0.4-2-1.1-2.7-2c-0.8-1-1.4-2.2-1.8-3.7c-0.1-0.2-0.1-0.4-0.1-0.6c-0.3-1.4-0.5-3.1-0.5-5.1
					c0-2.3,0.2-4.3,0.7-5.9c0.4-1.6,1-2.9,1.8-3.8c0.8-1,1.6-1.6,2.7-2.1c1-0.4,2.2-0.6,3.4-0.6c1.2,0,2.3,0.2,3.4,0.6
					s2,1.1,2.8,2.1c0.7,0.8,1.2,1.9,1.6,3.2c0.1,0.2,0.1,0.4,0.2,0.7c0.5,1.6,0.7,3.6,0.7,5.9C-417.8,179.9-418,181.8-418.5,183.4z"
					/>
			</g>
		</g>
	</g>
</g>
<g>
	<g>
		<g>
			<path class="st1" d="M399.2,439.9h-38.8c-5.6,0-9.8-4.3-10.3-10.3l-5.3-55.8c0-0.1,0-0.1,0-0.2l-5.1-53.5c-0.4-3.9,2.2-7.3,6-8
				c5.5-1.1,11.2-1.9,16.8-2.4c5.8-0.5,11.6-0.8,17.3-0.8c11.4,0,22.9,1.1,34.1,3.3c3.8,0.7,6.4,4.2,6,8l-10.5,109.5
				C409,435.6,404.7,439.9,399.2,439.9z M349.2,372.9c0,0.1,0,0.1,0,0.2l5.4,56c0.2,3,1.9,6.2,5.8,6.2h38.8c4,0,5.6-3.4,5.8-6.2
				l10.5-109.6l0,0c0.1-1.5-0.9-3-2.4-3.3c-10.9-2.1-22.1-3.3-33.3-3.3c-5.6,0-11.3,0.3-16.9,0.8c-5.5,0.5-11,1.3-16.4,2.4
				c-1.5,0.3-2.5,1.7-2.4,3.3L349.2,372.9z"/>
		</g>
	</g>
</g>
<g>
	<g>
		<g>
			<g>
				<path class="st8" d="M416.4,336.2l-0.6,6.5l-1.9,20.7l-0.9,9.5v0.4c-0.1,0-0.2,0.1-0.3,0.1c-9.1,3.3-20.5,5.2-32.8,5.2
					c-4.3,0-8.5-0.2-12.5-0.7c-7.5-0.8-14.4-2.3-20.3-4.5l0,0c-0.1,0-0.2-0.1-0.3-0.1v-0.4l-0.9-9.5l-1.9-20.7l-0.6-6.5
					c0.1,0,0.2-0.1,0.2-0.1c5.8-2.4,12.8-4.4,20.6-5.4c5-0.7,10.3-1.1,15.8-1.1c14,0,26.9,2.4,36.3,6.5
					C416.2,336.2,416.4,336.2,416.4,336.2z"/>
			</g>
		</g>
	</g>
	<g>
		<g>
			<g>
				<path class="st8" d="M413.8,360.6l-0.9,9.5l-0.3,3.3l-5.4,56c-0.4,4.7-3.4,8.2-8,8.2h-38.8c-4.7,0-7.7-3.6-8-8.2l-5.4-56
					l-0.3-3.3l-0.9-9.5H413.8z"/>
			</g>
		</g>
	</g>
</g>
<g class="st2">
	<g>
		<g>
			<path class="st3" d="M371.5,437.7h-11c-4.7,0-7.7-3.6-8-8.2l-5.4-56c-0.1,0-0.2-0.1-0.3-0.1v-0.4l-0.9-9.5l-1.9-20.7l-0.6-6.5
				c0.1,0,0.2-0.1,0.2-0.1l-0.2-2.6l-1.3-13.7c-0.2-2.6,1.5-5.1,4.2-5.6c5.5-1.1,11.1-1.9,16.6-2.4l1.3,18.9l2,29.9l1.2,17.2
				L371.5,437.7z"/>
		</g>
	</g>
	<g>
		<g>
			<path d="M371.9,438.1h-11.5c-4.7,0-8.1-3.5-8.5-8.7l-5.3-55.8l0,0l-0.2-0.1l-0.1-0.7l-3.6-36.9l0.2-0.1l-1.5-16
				c-0.3-3,1.7-5.5,4.6-6.1c5.5-1.1,11.1-1.9,16.7-2.4h0.4L371.9,438.1z M347.1,372.9l0.3,0.1l5.4,56.3c0.4,4.7,3.5,7.8,7.6,7.8
				h10.6l-8.8-124.9c-5.4,0.5-10.8,1.3-16.1,2.3c-2.4,0.5-4.1,2.6-3.9,5.2l1.6,16.6l-0.2,0.1L347.1,372.9z"/>
		</g>
	</g>
</g>
<g class="st2">
	<g>
		<g>
			<path class="st0" d="M-367.4,156.3l-67.6,88.1h-7.3l65.4-85.8c0.5-0.6,1.2-1.2,1.9-1.6c0.7-0.5,1.7-0.8,3-0.8L-367.4,156.3
				L-367.4,156.3z"/>
		</g>
	</g>
	<g>
		<g>
			<path class="st0" d="M-434.8,244.8h-8.1l0.3-0.5l65.5-85.8c0.5-0.6,1.2-1.2,1.9-1.7c0.8-0.5,1.9-0.8,3.2-0.8h5.3L-434.8,244.8z
				 M-441.7,244.2h6.7l67.1-87.6h-4.1c-1.2,0-2.2,0.2-2.8,0.7c-0.7,0.5-1.3,1-1.8,1.6L-441.7,244.2z"/>
		</g>
	</g>
</g>
<g class="st2">
	<g>
		<g>
			<g>
				<path class="st9" d="M-418.5,156.9c-2.5-1-5.2-1.6-8.2-1.6c-3,0-5.6,0.5-8.1,1.6c-2.5,1-4.6,2.5-6.5,4.4c-1.8,1.9-3.2,4.3-4.3,7
					c-1,2.7-1.5,5.8-1.5,9.3c0,3.3,0.5,6.3,1.5,9c0.4,1,0.8,2,1.3,2.9c0.8,1.5,1.8,2.8,2.9,4c0.3,0.3,0.8,0.8,1.1,1l6.5-8.7
					c-0.4-0.8-0.8-1.6-1-2.5c-0.1-0.2-0.1-0.4-0.1-0.6c-0.3-1.4-0.5-3.1-0.5-5.1c0-2.3,0.2-4.3,0.7-5.9c0.4-1.6,1-2.9,1.8-3.8
					s1.6-1.6,2.7-2.1c1-0.4,2.2-0.6,3.4-0.6c1.2,0,2.3,0.2,3.4,0.6s2,1.1,2.8,2.1c0.1,0.1,0.1,0.2,0.2,0.3l6.4-8.4
					C-415.2,158.6-416.8,157.7-418.5,156.9z"/>
			</g>
		</g>
	</g>
</g>
<g class="st2">
	<g>
		<g>
			<g>
				<path class="st9" d="M-368.7,203.1c-2.5-1-5.2-1.6-8.2-1.6c-3,0-5.6,0.5-8.1,1.6c-2.5,1-4.6,2.5-6.5,4.4c-1.8,1.9-3.2,4.3-4.3,7
					c-1,2.7-1.5,5.8-1.5,9.3c0,3.3,0.5,6.3,1.5,9c0.4,1,0.8,2,1.3,2.9c0.8,1.5,1.8,2.8,2.9,4c0.3,0.3,0.8,0.8,1.1,1l6.5-8.7
					c-0.4-0.8-0.8-1.6-1-2.5c-0.1-0.2-0.1-0.4-0.1-0.6c-0.3-1.4-0.5-3.1-0.5-5.1c0-2.3,0.2-4.3,0.7-5.9c0.4-1.6,1-2.9,1.8-3.8
					c0.8-1,1.6-1.6,2.7-2.1c1-0.4,2.2-0.6,3.4-0.6c1.2,0,2.3,0.2,3.4,0.6c1.1,0.4,2,1.1,2.8,2.1c0.1,0.1,0.1,0.2,0.2,0.3l6.4-8.4
					C-365.4,204.7-367,203.8-368.7,203.1z"/>
			</g>
		</g>
	</g>
</g>
<g>
	<g>
		<g>
			<path class="st0" d="M-341.5,203.7v-4.2h6.6v-6.6h4.3v6.6h6.6v4.2h-6.6v6.7h-4.3v-6.7H-341.5z"/>
		</g>
	</g>
</g>
<g>
	<g>
		<g>
			<g>
				<path class="st10" d="M399.2,439.7h-38.8c-5.6,0-9.8-4.3-10.3-10.3l-5.3-55.8c0-0.1,0-0.1,0-0.2l-5.1-53.5c-0.4-3.9,2.2-7.3,6-8
					c5.5-1.1,11.2-1.9,16.8-2.4c5.8-0.5,11.6-0.8,17.3-0.8c11.4,0,22.9,1.1,34.1,3.3c3.8,0.7,6.4,4.2,6,8l-10.5,109.5
					C409,435.4,404.7,439.7,399.2,439.7z M349.2,372.7c0,0.1,0,0.1,0,0.2l5.4,56c0.2,3,1.9,6.2,5.8,6.2h38.8c4,0,5.6-3.4,5.8-6.2
					l10.5-109.6l0,0c0.1-1.5-0.9-3-2.4-3.3c-10.9-2.1-22.1-3.3-33.3-3.3c-5.6,0-11.3,0.3-16.9,0.8c-5.5,0.5-11,1.3-16.4,2.4
					c-1.5,0.3-2.5,1.7-2.4,3.3L349.2,372.7z"/>
			</g>
		</g>
	</g>
</g>
</svg>
